<svg xmlns="http://www.w3.org/2000/svg" xmlns:xlink="http://www.w3.org/1999/xlink" viewBox="0 0 766 460"><defs><style>.a,.aa,.ab{fill:none;}.b{clip-path:url(#a);}.ah,.c{fill:#2272ba;}.d,.o{fill:#fff;}.e{fill:url(#b);}.f{fill:url(#c);}.g{fill:url(#d);}.h{fill:url(#e);}.i{fill:url(#f);}.j{fill:#e4e4e4;}.k{fill:#f1f1f2;}.l{fill:#e8f5f8;}.m{fill:#41ade2;}.n{fill:#d0d2d3;}.n,.o{opacity:0.5;}.n,.o,.r{isolation:isolate;}.p{fill:#e0e1e3;}.q{fill:url(#g);}.r,.s{opacity:0.3;}.r{fill:url(#h);}.t{fill:url(#i);}.u{fill:url(#j);}.v{fill:url(#k);}.w{fill:#8ba3aa;}.x{fill:#929497;}.y{fill:#c3e7f0;}.z{fill:#58595b;}.aa,.ab{stroke:#f1f1f2;stroke-linecap:square;stroke-linejoin:bevel;stroke-width:1.2px;}.aa{stroke-dasharray:1.93 2.9;}.ac{fill:#d5d5d5;}.ad{fill:#39b5d4;}.ae{fill:#939393;}.af{fill:#bbbdbf;}.ag{fill:#9e9e9e;}.ah{opacity:0.91;}</style><clipPath id="a"><rect class="a" x="1.5" y="0.5" width="766" height="460"/></clipPath><linearGradient id="b" x1="236.79" y1="306.37" x2="306.2" y2="385.2" gradientTransform="matrix(1, 0, 0, -1, 0, 460.27)" gradientUnits="userSpaceOnUse"><stop offset="0" stop-color="#fff"/><stop offset="1"/></linearGradient><linearGradient id="c" x1="242.84" y1="301.04" x2="312.28" y2="379.88" xlink:href="#b"/><linearGradient id="d" x1="258" y1="287.69" x2="327.44" y2="366.52" xlink:href="#b"/><linearGradient id="e" x1="187.05" y1="340.64" x2="187.05" y2="439.93" gradientTransform="matrix(1, 0, 0, -1, 0, 460.27)" gradientUnits="userSpaceOnUse"><stop offset="0"/><stop offset="1" stop-color="#fff"/></linearGradient><linearGradient id="f" x1="479.77" y1="104.15" x2="552.04" y2="-35.91" xlink:href="#b"/><linearGradient id="g" x1="479.77" y1="104.15" x2="552.04" y2="-35.91" gradientTransform="matrix(1, 0, 0, -1, 0, 460.27)" gradientUnits="userSpaceOnUse"><stop offset="0" stop-color="#fff"/><stop offset="1" stop-color="#fff"/></linearGradient><linearGradient id="h" x1="187.05" y1="340.64" x2="187.05" y2="439.93" gradientTransform="matrix(1, 0, 0, -1, 0, 460.27)" gradientUnits="userSpaceOnUse"><stop offset="0" stop-color="#64bcea"/><stop offset="1" stop-color="#fff"/></linearGradient><linearGradient id="i" x1="258" y1="287.69" x2="327.44" y2="366.52" xlink:href="#g"/><linearGradient id="j" x1="242.84" y1="301.04" x2="312.28" y2="379.88" xlink:href="#g"/><linearGradient id="k" x1="236.79" y1="306.37" x2="306.2" y2="385.2" xlink:href="#g"/></defs><title>abmaindefaultArtboard 1</title><g class="b"><rect class="c" x="-1" y="-47" width="768.62" height="748.91"/><rect class="d" x="273.6" y="302.07" width="46.81" height="41.29" rx="3.58" ry="3.58"/><rect class="d" x="269.2" y="302.39" width="44.38" height="122.03"/><path class="e" d="M257.7,173.54A41.29,41.29,0,0,1,228.5,103a39.78,39.78,0,0,1,22.73-11.69v43.06l2.33,3.28,23,31.5a41.45,41.45,0,0,1-18.76,4.5Z"/><path class="f" d="M258.79,131.46V81.79a47.43,47.43,0,0,1,14.52,2.46,50.45,50.45,0,0,1,32.85,62.41Z"/><path class="g" d="M265.92,141.67,294.62,151a40.76,40.76,0,0,1-11.79,14Z"/><path class="h" d="M193.06,43.13v53.7a12.74,12.74,0,0,1-.66,22.8V108.79L187,105.71l-5.35,3.09v10.84a12.74,12.74,0,0,1-.66-22.8V43.13a12.74,12.74,0,0,1,.66-22.8V31.18L187,34.26l5.35-3.09V20.34a12.71,12.71,0,0,1,.66,22.76Z"/><path class="i" d="M542,456.25a70,70,0,0,0,15.44-37.77,38.56,38.56,0,1,0-77.12,0v0a70.13,70.13,0,0,0,15.44,37.77,20.59,20.59,0,0,1,3.28,9.49h-5.19V471h41.68v4.43H493.78v5.29h50.16v-5.29h-3.28V471h3.28v-5.29h-5.16A20.4,20.4,0,0,1,542,456.25ZM498.28,426l5.22-1,.33,1.84,2.1-1h2.2l4.8,2.17,4.8-2.17h2.17l4.8,2.17,4.8-2.17h2.17l2.1,1,.33-1.84,5.22,1-7.16,39.81h-5.39l6-33.54-2.2-1-4.8,2.17h-2.17l-4.8-2.17-4.8,2.17h-2.17l-4.8-2.17-2.23,1,6,33.54H505.5Z"/><rect class="j" x="273.08" y="-44.37" width="53.9" height="118.55"/><rect class="j" x="299.55" y="13.9" width="40.2" height="58.27"/><rect class="d" x="245.16" y="-20.43" width="27.92" height="66.06"/><path class="d" d="M131.08,224.65,127.79,229l-19.25-27.46L94.49,191.14s-18.66,21.35-29.14,34.1l9.85,16.42A9.1,9.1,0,0,1,74.06,249l-1.38,1.87-14.06-18-7.06-5-20.92-8.11L32,217.94a9.1,9.1,0,0,1,6.57-3.28l18.72,4.57c9-13.63,24.11-37.81,24.11-37.81L67.35,171,35.49,160.59l3.28-4.37C40,154.62,43.31,155,43.31,155l52.56,6.9s3.28-4.76,14.35-19.35,22-15.73,22-15.73,2.2,10.54-8.67,25.62-14.35,19.35-14.35,19.35L131.08,220S132.19,223.13,131.08,224.65Z"/><polygon class="d" points="123.16 177.54 116.99 185.85 113.14 177.35 116.63 172.68 123.16 177.54"/><path class="d" d="M123.13,176.16,118,172.32a2.66,2.66,0,0,1,3.51-.26l1,.72A2.66,2.66,0,0,1,123.13,176.16Z"/><polygon class="d" points="89.66 154.84 86.21 159.51 76.98 158.29 83.12 149.98 89.66 154.84"/><path class="d" d="M89.79,153.37l-5.16-3.94a2.66,2.66,0,0,1,3.51-.26l.92.69A2.66,2.66,0,0,1,89.79,153.37Z"/><path class="k" d="M302.84,220.61a79.06,79.06,0,1,0,79.06-79.06,79.06,79.06,0,0,0-79.06,79.06Zm14.91,0a64.15,64.15,0,1,1,64.15,64.15h0a64.15,64.15,0,0,1-64.28-64v-.13Z"/><path class="k" d="M321.3,220.61a60.34,60.34,0,1,0,60.34-60.34A60.34,60.34,0,0,0,321.3,220.61Zm48,0a12.58,12.58,0,1,1,12.58,12.58,12.58,12.58,0,0,1-12.58-12.58Zm-6.57-4.11c-8.57-2.82-23-4.43-38.53-6a57.81,57.81,0,0,1,1.48-6.34c15.21,4,29.56,7.85,37.15,12Zm-36.13-14.88a58,58,0,0,1,2.46-6c14.39,6.27,27.82,12.35,34.79,17.64v.33c-8.24-4.14-22.3-8-37.35-11.92Zm3.68-8.44a58.43,58.43,0,0,1,3.28-5.55c13.14,8.44,25.52,16.42,31.57,23l-.16.3c-7.26-5.52-20.53-11.56-34.75-17.74Zm5-7.75a58.76,58.76,0,0,1,4.2-4.93c11.76,10.41,22.6,20.33,27.56,27.46l-.23.26c-6.5-6.44-18.56-14.45-31.63-22.8Zm6.14-6.87a58.84,58.84,0,0,1,4.93-4.24c9.85,12.12,19.15,23.62,23,31.43l-.26.23c-5.49-7.32-16.16-17.15-27.76-27.43Zm7.13-5.81a58.33,58.33,0,0,1,5.52-3.28c7.95,13.53,15.21,26.28,17.7,34.62l-.26.16c-4.14-8.18-13.24-19.54-23.06-31.53Zm7.92-4.63a57.94,57.94,0,0,1,6-2.46c5.72,14.62,10.91,28.35,12.05,36.92h-.3c-2.79-8.47-10-21.12-17.84-34.49Zm8.57-3.28a57.78,57.78,0,0,1,6.27-1.51c3.28,15.34,6.31,29.56,6.11,38.33h-.3c-1.45-8.87-6.54-22.47-12.19-36.89Zm9-1.91a58.47,58.47,0,0,1,6.57-.49c.92,15.64,1.58,30.29,0,38.76H380c0-9-2.79-23.19-6.11-38.33Zm9.13-.49a58.44,58.44,0,0,1,6.57.49c-1.54,15.6-3.28,30.15-6,38.27h-.3c1.25-8.9.59-23.39-.33-38.83Zm9.1.92a57.81,57.81,0,0,1,6.24,1.51c-3.94,15.18-7.85,29.27-12,36.79h-.3c2.76-8.57,4.4-23,5.91-38.43Zm8.84,2.33a58,58,0,0,1,5.91,2.46c-6.27,14.35-12.32,27.66-17.57,34.42h-.26c4-8,7.92-22,11.82-36.92Zm8.34,3.68a58.4,58.4,0,0,1,5.45,3.28c-8.44,13.14-16.42,25.36-22.7,31.2h-.23c5.19-7.19,11.07-20.37,17.38-34.52Zm7.65,5a58.76,58.76,0,0,1,4.86,4.14c-10.38,11.69-20.23,22.47-27.3,27.23l-.2-.16c6.21-6.18,14.19-18.23,22.5-31.24Zm6.77,6.08a58.76,58.76,0,0,1,4.14,4.83c-12.09,9.85-23.52,19-31.2,22.63l-.16-.2c7.09-5,16.85-15.77,27.1-27.3Zm5.75,7a58.47,58.47,0,0,1,3.28,5.42c-13.5,7.92-26.28,15.11-34.36,17.44v-.23c7.78-3.91,19-12.88,31-22.66Zm4.6,7.82a57.91,57.91,0,0,1,2.46,5.88C422.07,206.84,408.41,211.93,400,213v-.23c8.21-2.66,20.76-9.76,34.1-17.54Zm3.28,8.44a57.77,57.77,0,0,1,1.51,6.18c-15.27,3.28-29.56,6.27-38.07,6v-.26c8.67-1.25,22.11-6.37,36.49-11.92Zm1.94,8.87a58.44,58.44,0,0,1,.53,6.34c-15.64.92-30.19,1.54-38.53,0v-.26h.72c8.77-.1,22.53-2.86,37.22-6.14Zm.56,9a58.53,58.53,0,0,1-.46,6.34c-15.57-1.54-30.09-3.28-38-6.08v-.26a86.45,86.45,0,0,0,14.35,1c7.13-.2,15.44-.49,24.08-1Zm-.82,9a57.84,57.84,0,0,1-1.41,6.21c-15.14-3.94-29.2-7.85-36.62-12v-.26C409.39,227.44,423.71,228.92,439.15,230.59Zm-2.23,8.77a57.91,57.91,0,0,1-2.36,5.91C420.2,239,406.93,233,400.23,227.73v-.23c7.78,4.11,21.65,8,36.59,11.86Zm-3.58,8.34a58.4,58.4,0,0,1-3.28,5.45c-13.14-8.44-25.36-16.42-31.17-22.7v-.23c7.09,5.26,20.2,11.3,34.36,17.47Zm-4.83,7.69a58.74,58.74,0,0,1-4.07,4.89C412.74,249.87,402,240,397.17,233l.16-.2c6,6.31,18.07,14.26,31.07,22.6Zm-6,6.83a58.8,58.8,0,0,1-4.8,4.2c-9.85-12.12-19.05-23.55-22.66-31.27l.2-.2c5,7.09,15.6,16.95,27.16,27.26Zm-7,5.85a58.44,58.44,0,0,1-5.39,3.28c-7.92-13.53-15.14-26.28-17.54-34.46h.23c3.81,7.92,12.78,19.22,22.6,31.14Zm-7.78,4.7a57.94,57.94,0,0,1-5.88,2.56c-5.72-14.62-10.87-28.31-12-36.82h.26c2.53,8.34,9.53,20.92,17.47,34.26Zm-8.44,3.28a57.71,57.71,0,0,1-6.21,1.61c-3.28-15.34-6.31-29.56-6-38.27h.3c1.15,8.84,6.21,22.37,11.86,36.79Zm-8.9,2.07a58.37,58.37,0,0,1-6.41.59c-.92-15.67-1.58-30.32,0-38.79h.3c-.2,9,2.69,23.22,6,38.27Zm-9.1.66a58.5,58.5,0,0,1-6.57-.39c1.54-15.64,3.28-30.22,6-38.33h.3c-1.45,8.9-.79,23.39.13,38.86Zm-9.23-.59a57.78,57.78,0,0,1-6.31-1.41c4-15.21,7.85-29.37,12-37h.3C375.26,248.3,373.62,262.72,372.11,278.19Zm-8.9-2.2a57.88,57.88,0,0,1-6-2.4c6.27-14.39,12.35-27.79,17.61-34.69h.3c-4.11,8-7.95,22-11.86,37Zm-8.44-3.58a58.3,58.3,0,0,1-5.58-3.28c8.47-13.14,16.42-25.52,23-31.53h.3c-5.58,7.32-11.5,20.56-17.67,34.75ZM347,267.54a58.76,58.76,0,0,1-5-4.14c10.45-11.76,20.37-22.63,27.49-27.56l.26.2c-6.41,6.24-14.39,18.39-22.76,31.43Zm18.59-36.13c-8,4-19.45,13.14-31.4,23a58.44,58.44,0,0,1-3.42-5.52c13.57-7.95,26.28-15.24,34.72-17.77Zm-36.13,15.08a57.94,57.94,0,0,1-2.56-6c14.65-5.75,28.45-10.94,37.08-12.15v.33c-8.51,2.76-21.15,10.08-34.56,17.8ZM326,237.95a57.78,57.78,0,0,1-1.58-6.31c15.37-3.28,29.83-6.37,38.53-6.21v.33c-8.87,1.38-22.53,6.44-37,12.19Zm-2.07-9a58.47,58.47,0,0,1-.56-6.57c15.7-.92,30.45-1.61,39,0v.36C353.39,222.67,339.1,225.63,323.92,228.92Zm-.59-9.2a58.53,58.53,0,0,1,.46-6.57c15.64,1.54,30.32,3.28,38.56,6v.36c-8.93-1.38-23.49-.69-39,.23Zm12.42,36.82c12.15-9.85,23.65-19.18,31.47-23l.23.26c-7.32,5.26-17.15,16-27.43,27.59a58.8,58.8,0,0,1-4.24-4.83Z"/><path class="k" d="M371.26,220.61A10.61,10.61,0,1,0,381.87,210a10.61,10.61,0,0,0-10.61,10.61Zm1.81-2.17a.69.69,0,0,1,1.35,0,7.13,7.13,0,0,0,7.06,7.19h.07a5.55,5.55,0,0,0,5.55-5.55h0a4.3,4.3,0,0,0-4.3-4.3h0a3.28,3.28,0,0,0-3.28,3.28,2.53,2.53,0,0,0,2.5,2.5,1.87,1.87,0,0,0,1.87-1.87,1.38,1.38,0,0,0-1.38-1.38,1,1,0,0,0-1,1h0a.69.69,0,0,1-1.35,0,2.3,2.3,0,0,1,2.3-2.3,2.73,2.73,0,0,1,2.73,2.73h0a3.28,3.28,0,0,1-3.28,3.28,3.88,3.88,0,0,1-3.81-3.91,4.66,4.66,0,0,1,4.66-4.66,5.68,5.68,0,0,1,5.65,5.65,6.93,6.93,0,0,1-6.9,6.9,8.47,8.47,0,0,1-8.47-8.47Z"/><path class="d" d="M645.73,183.36a4,4,0,1,1-4.11-3.94,4,4,0,0,1,4.11,3.94Zm-2.14,0a1.91,1.91,0,1,0-1.87,1.94,1.91,1.91,0,0,0,1.87-1.94Z"/><path class="d" d="M641.59,184.31h.26a.23.23,0,0,1,.23.2v.23a.16.16,0,0,1-.08.22h-.51a.16.16,0,0,1-.16-.2v-.23a.23.23,0,0,1,.23-.23Z"/><path class="d" d="M641,184l.16.16a.23.23,0,0,1,0,.3v.2a.16.16,0,0,1-.23,0l0,0-.33-.3a.16.16,0,0,1,0-.23l0,0h.2A.23.23,0,0,1,641,184Z"/><path class="d" d="M642.28,184.14l.16-.16a.23.23,0,0,1,.3,0h.2a.16.16,0,0,1,0,.23l0,0-.3.33a.16.16,0,0,1-.23,0l0,0v-.2A.23.23,0,0,1,642.28,184.14Z"/><path class="d" d="M606,183.62l-.43,1.74h0l-.23.43a1.87,1.87,0,0,1,.26.92,1.91,1.91,0,1,1-3-1.51v-.82l.36-1.58a4,4,0,1,0,3.05.69Z"/><path class="d" d="M602.66,187.23a1.05,1.05,0,0,1,0-.36v-.33h-.23a.16.16,0,0,0-.2.16v.43a.16.16,0,0,0,.15.18h.34Z"/><path class="d" d="M602.89,187.63l-.16-.23h-.2a.16.16,0,0,0,0,.23l0,0,.33.3a.16.16,0,0,0,.23,0l0,0v-.2h0Z"/><path class="d" d="M605,186.48l-.36.69h.23a.16.16,0,0,0,.2-.16v-.43A.16.16,0,0,0,605,186.48Z"/><path class="d" d="M602.57,186.21v-.49h0a.16.16,0,0,0,0,.23l0,0Z"/><path class="d" d="M604,187.86h-.59v.33a.16.16,0,0,0,.13.19H604a.16.16,0,0,0,.16-.23v-.23Z"/><path class="d" d="M604.7,187.4h0a1.05,1.05,0,0,1-.39.43h0v.2a.16.16,0,0,0,.23,0l0,0,.3-.33a.16.16,0,0,0,0-.23l0,0Z"/><path class="d" d="M628.25,178H625l2.59,3.28a.33.33,0,0,0,.26,0H629a.33.33,0,0,0,.3-.46Z"/><path class="d" d="M685.9,172.68l-1.87.23,1.31,1.64a.23.23,0,0,0,.2,0h.82a.23.23,0,0,0,.2-.33Z"/><circle class="d" cx="642.22" cy="182.29" r="0.46" transform="translate(-3.52 12.88) rotate(-1.15)"/><path class="d" d="M641.82,182.5h-.26a.23.23,0,0,1-.23-.2v-.23a.16.16,0,0,1,.08-.22h.51a.16.16,0,0,1,.16.2v.23a.23.23,0,0,1-.23.23Z"/><path class="d" d="M642.41,182.93l-.16-.16a.23.23,0,0,1,0-.3v-.2a.16.16,0,0,1,.23,0l0,0,.33.3a.16.16,0,0,1,0,.23l0,0,0,.1a.23.23,0,0,1-.39,0Z"/><path class="d" d="M642.61,183.52v-.26a.23.23,0,0,1,.11-.31l.09,0H643a.16.16,0,0,1,.23.16v.43a.16.16,0,0,1-.16.17h-.3A.23.23,0,0,1,642.61,183.52Z"/><path class="d" d="M640.8,183.32v.26a.23.23,0,0,1-.2.23h-.23a.16.16,0,0,1-.23-.16v-.43a.16.16,0,0,1,.16-.17h.27a.23.23,0,0,1,.23.26Z"/><path class="d" d="M641.13,182.7l-.16.16a.23.23,0,0,1-.3,0h-.2a.16.16,0,0,1,0-.23l0,0,.3-.33a.16.16,0,0,1,.23,0l0,0v.2A.23.23,0,0,1,641.13,182.7Z"/><path class="d" d="M641.62,178.69H642v-1.41h-.89v1.38Z"/><path class="d" d="M593.73,174.19a10.81,10.81,0,0,1-4.89-2.73l-.49,1.84a8.7,8.7,0,0,0,4.83,3L604,178.5v-.56a1.05,1.05,0,0,1,1-.82h.26l1,.23a1.05,1.05,0,0,1,.79,1.26v.48h.46l.79-2.33A124.19,124.19,0,0,1,593.73,174.19Z"/><path class="d" d="M605,178.17l-1.58,6.57h0v2.1l1-1.84h0l1.58-6.57-1-.23Z"/><path class="d" d="M717,160.82,724.1,158a3.74,3.74,0,0,1,1.31-.26l18.82-.33a1,1,0,0,1,.79.39l2,2.66a.3.3,0,0,1-.23.46l-29.73.53a.33.33,0,0,1-.1-.62Z"/><ellipse class="d" cx="580.2" cy="150.14" rx="1.54" ry="9.95" transform="translate(-2.63 10.56) rotate(-1.04)"/><path class="d" d="M580.39,162.27c1,0,1.58,1.12,2,2.66a26,26,0,0,0,3.28.33v-.76l-.39-5.16a3.05,3.05,0,0,1,0-1.18,25.92,25.92,0,0,0-3,.43c-.33,1.58-.92,2.73-1.87,2.76s-1.28-.66-1.68-1.71a13.14,13.14,0,0,0-3.28,1.84.53.53,0,0,0-.08.74l.08.08a13.14,13.14,0,0,0,3.28,1.71C579.18,163,579.67,162.27,580.39,162.27Z"/><ellipse class="d" cx="580.62" cy="173.49" rx="1.54" ry="9.95" transform="translate(-3.05 10.57) rotate(-1.04)"/><path class="d" d="M623.09,148a1.35,1.35,0,0,1-.59-2.59,44.61,44.61,0,0,1,19.71-4.07,93.94,93.94,0,0,1,29.56,4v2s-19.08,1.12-29.56,1.28C635.38,148.77,627.59,148.34,623.09,148Z"/><path class="d" d="M622.44,172.62l6.83-23.16H626.9L620,172.68c-1.18.2-2,.66-2,1.18s1.38,1.18,3.05,1.15,3-.59,3-1.28S623.42,172.78,622.44,172.62Z"/><path class="d" d="M591.76,156.65a66.78,66.78,0,0,1,.23,9.69l18,.69a116.28,116.28,0,0,0,0-12.28h0Z"/><path class="d" d="M590.87,156.65l-2.89.3a2.14,2.14,0,0,0-1.91,2.3l.39,5.16a9.85,9.85,0,0,0,4.2,7.36A74.33,74.33,0,0,0,590.87,156.65Z"/><path class="d" d="M610,167.89l-18-.69a33,33,0,0,1-.43,5.16,9.85,9.85,0,0,0,2.43,1,124.16,124.16,0,0,0,15.31,2.76Q609.79,172.06,610,167.89Z"/><path class="d" d="M757.21,130.77l1-2.07-12.61-1.31a4.63,4.63,0,0,0-4.07,1.68l-.82,1Z"/><path class="d" d="M732.54,165.72l5-.69a7.06,7.06,0,0,0,4.93-3.28l-9.85.2Z"/><rect class="d" x="659.66" y="160.09" width="8.31" height="11.5" rx="1.38" ry="1.38" transform="translate(-2.9 12.08) rotate(-1.04)"/><path class="d" d="M750.9,131.39l-16.59,25.26,9.85-.2a1.87,1.87,0,0,1,.76,0l11.79-25Z"/><path class="d" d="M715.92,161.38a1.22,1.22,0,0,0,1.25,1l14.39-.26v3.74c-23.19,3.28-81.56,10.84-102.19,11.23a147.81,147.81,0,0,1-19.25-.89,112.47,112.47,0,0,0,.59-22.11,66,66,0,0,1,10.54-5.58,2.4,2.4,0,0,0,1.58.66H626l-6.57,22.5c-1.38.36-2.2,1.08-2.2,2,0,1.48,2.07,2.1,4,2.07s3.94-.72,3.91-2.2c0-.72-.53-1.31-1.45-1.68l6.57-22.5c2.76,0,5.75.23,8.54.16h4.89c8.31,0,28.08,6.14,28.08,6.14l10.48-.2h1L710,152.51a33.37,33.37,0,0,0,22.3-12.15l7.62-9.39,9.85.43L733.2,156.65h-7.78a4.66,4.66,0,0,0-1.64.33l-7.09,2.82a1.22,1.22,0,0,0-.77,1.54Zm-103.07-7.52,9.85,3.88,2.23-7.52h-2a3.45,3.45,0,0,1-1.68-.53,66.28,66.28,0,0,0-8.44,4.14Zm32.32-.92a2.4,2.4,0,0,0-1.87-2.23H630.88l-2.63,8,14.91.3a2,2,0,0,0,2.1-1.9s0-.09,0-.13Zm3.61,5.78,13.14-.69a1.54,1.54,0,0,0,1.15-.76l.79-1.35a.36.36,0,0,0-.14-.49l-.09,0a63.49,63.49,0,0,0-7.72-2.36c-1.51-.26-5.78-1.48-7.09-1.61h-.39a1.51,1.51,0,0,0-1.48,1.54h0v4.27a1.51,1.51,0,0,0,1.84,1.48Zm20,2.59a2.3,2.3,0,0,0-2.33-2.23h-5.58a2.3,2.3,0,0,0-2.23,2.33v8.77a2.3,2.3,0,0,0,2.33,2.23h5.58a2.3,2.3,0,0,0,2.23-2.33Z"/><path class="d" d="M380.58,457.63a4.66,4.66,0,0,0-4.4-2,13.93,13.93,0,0,0-2.5.26,8.87,8.87,0,0,1,3.81-6.31c1.22,3.28,2.86,5,5,5s3.81-1.68,5-5a8.87,8.87,0,0,1,3.81,6.27,13.5,13.5,0,0,0-2.23-.23,4.6,4.6,0,0,0-4.34,2c-1.08,1.87-.39,4.2,2.1,7a8.84,8.84,0,0,1-8.34,0C381,461.9,381.7,459.53,380.58,457.63Z"/><path class="d" d="M376.05,427.15c0-19.71,2.89-45,6.57-45s6.57,25.29,6.57,45-2.89,26.44-6.57,26.44S376.05,446.89,376.05,427.15Z"/><path class="d" d="M412.51,466.17c17.74,10.25,39,25.85,37.22,28.94s-25.95-7.52-43.69-17.77-22.3-16.23-20.53-19.31S394.77,455.92,412.51,466.17Z"/><path class="d" d="M374.64,427.15v2a28.68,28.68,0,0,0-20.2,34.46l-1.51.85-3.55,2.1a34.46,34.46,0,0,1,23.38-42.75q1-.28,1.94-.51C374.64,425.64,374.64,427.08,374.64,427.15Z"/><path class="d" d="M413.23,465l-2.66-1.51a28.71,28.71,0,0,0-20.23-34.16V423.4a34.46,34.46,0,0,1,25.82,41.33q-.21.89-.46,1.77Z"/><path class="d" d="M360.09,476.91c-17.08,9.85-40.43,20-42.24,16.92s18.69-18.23,35.77-28.12S378,455,379.89,458.09,377.2,467,360.09,476.91Z"/><path class="l" d="M215.27,268.33a10.71,10.71,0,0,1,4.24,3.28,42.41,42.41,0,0,0,20.07-14.22,52.19,52.19,0,0,0-12.51-7.06,53.51,53.51,0,0,1-9.85,15.57A28.54,28.54,0,0,1,215.27,268.33Z"/><path class="l" d="M206.92,228.49h22a55.84,55.84,0,0,0-2.63-16.95A60,60,0,0,1,207,215Z"/><path class="l" d="M225.45,209.21A51.8,51.8,0,0,0,216.71,194a19.25,19.25,0,0,1-9.85,2.79v15.7A57.42,57.42,0,0,0,225.45,209.21Z"/><path class="l" d="M231.26,228.49h17.08A42.11,42.11,0,0,0,239,205a54.53,54.53,0,0,1-10.54,5.72A58.43,58.43,0,0,1,231.26,228.49Z"/><path class="l" d="M227.91,248.16a54.3,54.3,0,0,1,13.14,7.39,42.11,42.11,0,0,0,7.46-24v-1H231.23A58,58,0,0,1,227.91,248.16Z"/><path class="l" d="M219.5,191.4a8.12,8.12,0,0,1-.92,1.15,53.84,53.84,0,0,1,9.13,15.87,52.56,52.56,0,0,0,9.85-5.29A42.34,42.34,0,0,0,219.5,191.4Z"/><path class="l" d="M180.55,228.49a58,58,0,0,1,3.28-17.57,54.76,54.76,0,0,1-10.74-5.75,42.11,42.11,0,0,0-9.1,23.32Z"/><path class="l" d="M206.92,244.06a60.08,60.08,0,0,1,18.72,3.28,55.45,55.45,0,0,0,3.28-16.75h-22Z"/><path class="l" d="M186.23,249.81a51.24,51.24,0,0,0,11.33,18.07,20.66,20.66,0,0,1,7.19-1.64V246.52A57.42,57.42,0,0,0,186.23,249.81Z"/><path class="l" d="M194.34,193.18a8.64,8.64,0,0,1-1.58-1.77,42.37,42.37,0,0,0-18.16,12,52.79,52.79,0,0,0,10.12,5.32A53.51,53.51,0,0,1,194.34,193.18Z"/><path class="l" d="M204.82,196.86a19.71,19.71,0,0,1-8.51-2.3A51.31,51.31,0,0,0,187,209.5a57.48,57.48,0,0,0,17.87,3.28Z"/><path class="l" d="M224.79,249.58a57.48,57.48,0,0,0-17.87-3.28V266a21.91,21.91,0,0,1,5.88,1A50.75,50.75,0,0,0,224.79,249.58Z"/><path class="l" d="M204.82,215a60.08,60.08,0,0,1-18.72-3.28,55.45,55.45,0,0,0-3.28,16.75h21.91Z"/><path class="l" d="M183.27,248.39a58.43,58.43,0,0,1-2.76-17.8H163.83q0,.49,0,1a42.11,42.11,0,0,0,7.29,23.65A54.23,54.23,0,0,1,183.27,248.39Z"/><path class="l" d="M192.8,271.62a9.56,9.56,0,0,1,2.69-2.63l-1.05-1.12a53.67,53.67,0,0,1-10.35-17.28,52.13,52.13,0,0,0-11.53,6.57A42.41,42.41,0,0,0,192.8,271.62Z"/><path class="l" d="M204.82,230.59H182.94a55.84,55.84,0,0,0,2.63,16.95,60,60,0,0,1,19.31-3.48Z"/><polygon class="l" points="396.02 348.48 385.48 337.94 396.02 327.36 393.13 324.47 382.59 335.04 372.01 324.47 369.12 327.36 379.7 337.94 369.12 348.48 372.01 351.37 382.59 340.79 393.13 351.37 396.02 348.48"/><polygon class="l" points="153.32 93.09 142.77 82.52 153.32 71.94 150.43 69.08 139.88 79.63 129.3 69.08 126.41 71.94 136.99 82.52 126.41 93.09 129.3 95.95 139.88 85.41 150.43 95.95 153.32 93.09"/><polygon class="l" points="728.93 78.15 718.35 67.6 728.93 57.03 726.04 54.14 715.49 64.71 704.92 54.14 702.03 57.03 712.6 67.6 702.03 78.15 704.92 81.04 715.49 70.49 726.04 81.04 728.93 78.15"/><polygon class="l" points="119.22 291.52 108.64 280.98 119.22 270.4 116.33 267.51 105.75 278.09 95.21 267.51 92.32 270.4 102.89 280.98 92.32 291.52 95.21 294.41 105.75 283.84 116.33 294.41 119.22 291.52"/><polygon class="l" points="188.59 388.95 178.02 378.4 188.59 367.83 185.7 364.94 175.16 375.51 164.58 364.94 161.69 367.83 172.27 378.4 161.69 388.95 164.58 391.84 175.16 381.26 185.7 391.84 188.59 388.95"/><path class="l" d="M505.27-1.8A20,20,0,0,0,485-21.58a20,20,0,0,0-12.42,4.5,29.74,29.74,0,0,0-36.38-21.1A29.74,29.74,0,0,0,415.14-1.8h-.82a13.43,13.43,0,0,0-13.4,13.4v.53a13.43,13.43,0,0,0,13.43,13.14h90.3A13.43,13.43,0,0,0,518,12.12V11.7A13.43,13.43,0,0,0,505.27-1.8Z"/><path class="l" d="M704.62,338.46,704,339a5.35,5.35,0,0,1-1.45.76,5.52,5.52,0,0,1-3.28,0,7.19,7.19,0,0,1-2.92-1.51,8.67,8.67,0,0,1-1-1l-.46-.59-.39-.62h-.36v-6.7h.36l.39-.62.46-.59a8.67,8.67,0,0,1,1.12-1.12,7.19,7.19,0,0,1,2.92-1.51,5.52,5.52,0,0,1,3.28,0,5.35,5.35,0,0,1,1.45.76l.66.56.3.33.26.33h0v-.43l-.26-1.51-.23-1v-1.15l-.33-1.18v-.59l-.2-.59c-.26-.79-.59-1.58-.89-2.33L703,317.7l-.43-.92-.69-1.35-.3-.49a5.75,5.75,0,0,1-.23,1.71,5.58,5.58,0,0,1-.66,1.48,5.52,5.52,0,0,1-2.43,2,7.16,7.16,0,0,1-3.28.59,8.11,8.11,0,0,1-1.54-.2l-.72-.2-.69-.26-.33.2-.23-.43-.16-.3h0l-.2-.3-.2-.33-.26-.36-.46-.66-.23-.3-.3-.39-.2-.26h0l.3-.23a7.26,7.26,0,0,1,0-1.48,8,8,0,0,1,.33-1.51,7.26,7.26,0,0,1,1.68-2.82,5.81,5.81,0,0,1,1.28-1l.72-.33.76-.23a5.71,5.71,0,0,1,1.61,0h.82l.85.23-.39-.43-.43-.49-.59-.62a35.77,35.77,0,0,0-3.28-3.28l-1-.79-1-.72-.46-.33-.46-.3-.85-.56-.39-.23-.36-.2-.59-.33-.36-.2h0a6.57,6.57,0,0,1,.72,1.58,5.35,5.35,0,0,1,.16.79,5.61,5.61,0,0,1,0,.82,5.49,5.49,0,0,1-1,3,7.23,7.23,0,0,1-2.4,2.2l-.69.36-.72.3-.72.23h-.72l-.16.33-.43-.23h-.3l-1.08-.49-1.08-.43-.92-.3V309l-.2-.3-.2-.3-.36-.66c0-.23-.2-.46-.3-.72a6.62,6.62,0,0,1-.23-.76,7.23,7.23,0,0,1,0-3.28,5.49,5.49,0,0,1,1.48-2.79,5.88,5.88,0,0,1,2.92-1.54H681l-.62-.2-.82-.23-1-.23h-1.12l-1.22-.2h-7.95l.76.43.66.53a5.68,5.68,0,0,1,1.05,1.25,5.55,5.55,0,0,1,.79,3.05,7.19,7.19,0,0,1-.85,3.28,8.08,8.08,0,0,1-.85,1.31l-.49.56-.53.53v.36H665.7l-1,.23v-.36a7.29,7.29,0,0,1-1.31-.69l-.33-.23-.3-.23-.59-.53a7.29,7.29,0,0,1-1.84-2.73,5.45,5.45,0,0,1-.23-3.28,5.58,5.58,0,0,1,.59-1.51,6.57,6.57,0,0,1,1.05-1.35h-.56l-1.48.46-1,.33-1.05.39a22.54,22.54,0,0,0-2.27,1l-1.12.56-.56.3-.53.3-1,.56-.85.56-.72.46-.56.39-.46.33a6.57,6.57,0,0,1,1.71,0,5.75,5.75,0,0,1,1.54.49,5.29,5.29,0,0,1,1.31.89,5.81,5.81,0,0,1,1,1.25,6.57,6.57,0,0,1,.66,1.54,7.82,7.82,0,0,1,.3,1.61,8.4,8.4,0,0,1,0,1.54,7.13,7.13,0,0,1-.3,1.45l.23.3-.76.59h0l-.2.16-.62.53-.59.56-.26.26h0l-.23.23-.33.36-.26-.26h-3a7.19,7.19,0,0,1-3-1.31,5.52,5.52,0,0,1-1.87-2.53,5.35,5.35,0,0,1-.3-1.61,6,6,0,0,1,0-1.71h0l-.3.33-1,1.15a36.89,36.89,0,0,0-2.73,3.74l-.33.53-.33.53-.59,1.05-.53,1-.23.46-.2.46-.36.79V319l-.23.53.72-.49.76-.39a5.68,5.68,0,0,1,1.58-.43,5.52,5.52,0,0,1,3.12.59,6.57,6.57,0,0,1,1.38,1l.59.56.53.62a8.08,8.08,0,0,1,.82,1.31V323a6.83,6.83,0,0,1,.23.69H648v1.91l-.23.79v1.15h-.36a7.19,7.19,0,0,1-1.18.89,8,8,0,0,1-3,1.12,6.57,6.57,0,0,1-1.68,0,5.45,5.45,0,0,1-3-1.15,5.75,5.75,0,0,1-1.12-1.18,6.27,6.27,0,0,1-.76-1.54V339a6.27,6.27,0,0,1,.76-1.54,5.75,5.75,0,0,1,1.12-1.18,5.45,5.45,0,0,1,3-1.15,6.57,6.57,0,0,1,1.68,0,8,8,0,0,1,3,1.12,7.19,7.19,0,0,1,1.18.89h.36v1.15l.23.79v1.91h-.33a6.87,6.87,0,0,1-.23.69v.69a8,8,0,0,1-.82,1.31l-.53.62-.59.56a6.57,6.57,0,0,1-1.38,1,5.52,5.52,0,0,1-3.12.59,5.68,5.68,0,0,1-1.58-.43l-.76-.39-.72-.49.23.53v.62l.36.79.2.46.23.46.53,1,.59,1.05.33.53.33.53a36.89,36.89,0,0,0,2.73,3.74l1,1.15.3.33h0a6,6,0,0,1,0-1.71,5.35,5.35,0,0,1,.3-1.61,5.52,5.52,0,0,1,1.87-2.53,7.19,7.19,0,0,1,3-1.31h3l.26-.26.33.36.23.23h0l.26.26.59.56.62.53.2.16h0l.76.59-.23.3a7.13,7.13,0,0,1,.3,1.45,8.4,8.4,0,0,1,0,1.54,7.82,7.82,0,0,1-.3,1.61,6.57,6.57,0,0,1-.66,1.54,5.81,5.81,0,0,1-1,1.25,5.29,5.29,0,0,1-1.31.89,5.75,5.75,0,0,1-1.54.49,6.57,6.57,0,0,1-1.71,0l.46.33.56.39.72.46.85.56,1,.56.53.3.56.3,1.12.56c.76.36,1.54.72,2.27,1l1.05.39,1,.33,1.48.46h.56a6.57,6.57,0,0,1-1.05-1.35,5.58,5.58,0,0,1-.59-1.51,5.45,5.45,0,0,1,.23-3.28,7.29,7.29,0,0,1,1.84-2.73l.59-.53.3-.23.33-.23a7.29,7.29,0,0,1,1.31-.69v-.36l1,.23h3.15v.36l.53.53.49.56a8.08,8.08,0,0,1,.85,1.31,7.19,7.19,0,0,1,.85,3.28,5.55,5.55,0,0,1-.79,3.05,5.65,5.65,0,0,1-1.05,1.25l-.66.53-.76.43h7.95l1.22-.2h1.12l1-.23.82-.23.62-.2h.43a5.88,5.88,0,0,1-2.92-1.54,5.49,5.49,0,0,1-1.48-2.79,7.23,7.23,0,0,1,0-3.28,1,1,0,0,1,.23-.76c.23-.26.2-.49.3-.72l.36-.66.2-.3.2-.3v-.36l.92-.3,1.08-.43,1.08-.49h.3l.43-.23.16.33H683l.72.23.72.3.69.36a7.23,7.23,0,0,1,2.4,2.2,5.49,5.49,0,0,1,1,3,5.61,5.61,0,0,1,0,.82,5.35,5.35,0,0,1-.16.79,6.57,6.57,0,0,1-.72,1.58h0l.36-.2.59-.33.36-.2.39-.23.85-.56.46-.3.46-.33,1-.72,1-.79a35.74,35.74,0,0,0,3.28-3.28l.59-.62.43-.49.39-.43-.85.23h-.82a5.75,5.75,0,0,1-1.61,0l-.76-.23-.72-.33a5.81,5.81,0,0,1-1.28-1,7.26,7.26,0,0,1-1.68-2.82,8,8,0,0,1-.33-1.51,7.26,7.26,0,0,1,0-1.48l-.3-.23h0l.2-.26.3-.39.23-.3.46-.66.26-.36.2-.33.2-.3h0l.16-.3.23-.43.33.2.69-.26.72-.2a8.11,8.11,0,0,1,1.54-.2,7.16,7.16,0,0,1,3.28.59,5.52,5.52,0,0,1,2.43,2,5.58,5.58,0,0,1,.66,1.48,5.75,5.75,0,0,1,.23,1.71l.3-.49.69-1.35.43-.92.46-1.05c.3-.72.62-1.51.89-2.33l.2-.59v-.59l.33-1.18V340l.23-1,.26-1.51V337h0l-.26.33Zm-20.5-5.39v1a14.75,14.75,0,0,1-.53,2.76,14.29,14.29,0,0,1-1,2.59v.46l-.2.36v.23h0V341l-.26.39v.16l-.2.23h0l-.3.33a15.86,15.86,0,0,1-1.71,1.61l-.49.39-.49.36-.49.3h-.23l-.69.36h-.2l-.62.3-.62.26h-3.28a15.63,15.63,0,0,1-2.36,0H667a14.46,14.46,0,0,1-2.17-.82,15.37,15.37,0,0,1-2-1.18l-.36-.26-.26-.2-.23-.2h0l-.36-.33-.36-.33h0l-.23-.23h0V342a13.73,13.73,0,0,1-1.41-1.87,15.67,15.67,0,0,1-1.08-2.07l-.3-.72v-2.59a14.55,14.55,0,0,1,0-4.7v-2.59l.3-.72a15.7,15.7,0,0,1,1.08-2.07,13.73,13.73,0,0,1,1.41-1.87v-.16h0l.23-.23h0l.36-.33.36-.33h0l.23-.2.26-.2.36-.26a15.37,15.37,0,0,1,2-1.18,14.46,14.46,0,0,1,2.17-.82h3.45a15.66,15.66,0,0,1,2.36,0h3.28l.62.26.62.3h.2l.69.36h.23l.49.3.49.36.49.39a15.86,15.86,0,0,1,1.71,1.61l.3.33h0l.2.23v.16l.26.39v.59h0v.23l.2.36v.46a14.29,14.29,0,0,1,1,2.59,14.75,14.75,0,0,1,.53,2.76v2.3Z"/><path class="l" d="M646.74,213.87a11.56,11.56,0,0,0-14.52,17.8L608.9,267.81a11.56,11.56,0,0,0-11.2,1.38l-33.47-29.14a11.56,11.56,0,1,0-20.66,3.51l-29.2,31.76a11.56,11.56,0,1,0,3.78,3.45L547.35,247a11.56,11.56,0,0,0,14.26-2.2h0l32.62,28.38a11.56,11.56,0,1,0,18.72-2.3l23.42-36.39a11.56,11.56,0,0,0,10.22-20.6Z"/><path class="d" d="M478.57,59.82l3.48.26L473.8,79.79,473,91S491,93.72,501.36,95l5.58-10.94a5.81,5.81,0,0,1,4.37-1.87h1.48l-4.89,13.7-.39,5.49,2.82,14.12h-1.48a5.81,5.81,0,0,1-4-2.5l-3.91-11.66c-10.41-.2-28.61,0-28.61,0l-.82,11.14,5.26,20.73-3.48-.26c-1.28,0-2.23-2-2.23-2l-14.22-30.68s-3.65,0-15.34-1.12-16-6.57-16-6.57,4.93-4.76,16.75-4.07,15.34,1.12,15.34,1.12L476.1,61.4S477.42,59.72,478.57,59.82Z"/><polygon class="d" points="455.94 80.18 462.5 80.68 459.25 85.64 455.54 85.37 455.94 80.18"/><path class="d" d="M455.18,80.68l-.3,4.11A1.71,1.71,0,0,1,453.54,83v-.79A1.71,1.71,0,0,1,455.18,80.68Z"/><polygon class="d" points="455.12 106 458.83 106.26 461.32 111.65 454.75 111.16 455.12 106"/><path class="d" d="M454.23,106.46l-.3,4.2a1.71,1.71,0,0,1-1.35-1.81v-.72A1.71,1.71,0,0,1,454.23,106.46Z"/><path class="d" d="M238.32,483.78l.62,3.28-21.19-3.12-11,2s1.74,18.07,3,28.45l12,2.69a5.81,5.81,0,0,1,2.89,3.74l.26,1.45-14.49-1.35-5.39,1-13.14,6.21-.26-1.45a5.81,5.81,0,0,1,1.45-4.53l10.31-6.57c-2.36-10.15-7-27.76-7-27.76l-11,2-18.79,10.22-.62-3.28c-.23-1.25,1.41-2.66,1.41-2.66l26.28-21.35s-.82-3.55-2.69-15.14,2.33-17.08,2.33-17.08,5.85,3.61,8.08,15.24,2.69,15.14,2.69,15.14l32.06,11S238.13,482.59,238.32,483.78Z"/><path class="m" d="M271.2,36.86h1.87a19.35,19.35,0,1,0-1.81,0ZM273-2.36a17,17,0,1,1-17,17h0A17,17,0,0,1,273-2.39h0Z"/><path class="n" d="M271.2,36.86h1.87a19.35,19.35,0,1,0-1.81,0ZM273-2.36a17,17,0,1,1-17,17h0A17,17,0,0,1,273-2.39h0Z"/><path class="d" d="M226.66,22,237,23.26a36.72,36.72,0,0,0,4.34,10.51L234.81,42a3.55,3.55,0,0,0,0,5l2.79,2.79,2.79,2.79a3.55,3.55,0,0,0,5,0L253.63,46a36.85,36.85,0,0,0,10.51,4.34l1.28,10.38a3.55,3.55,0,0,0,3.68,3.94H277a3.55,3.55,0,0,0,3.55-3.55h0l1.28-10.38a36.82,36.82,0,0,0,10.51-4.34L300.57,53a3.55,3.55,0,0,0,5,0l2.79-2.79,2.79-2.79a3.55,3.55,0,0,0,0-5l-6.57-8.24a36.82,36.82,0,0,0,4.34-10.51L319.42,22A3.55,3.55,0,0,0,323,18.69v-8a3.55,3.55,0,0,0-3.55-3.55h0L309,5.82a36.92,36.92,0,0,0-4.34-10.51l6.57-8.24a3.55,3.55,0,0,0,0-5l-2.92-2.79-2.79-2.79a3.55,3.55,0,0,0-5,0l-8.24,6.57a36.92,36.92,0,0,0-10.51-4.34l-1.28-10.38A3.55,3.55,0,0,0,277-35.21H269.1a3.55,3.55,0,0,0-3.55,3.55h0l-1.28,10.38a36.85,36.85,0,0,0-10.51,4.34l-8.24-6.57a3.55,3.55,0,0,0-5,0l-2.79,2.79-2.79,2.79a3.55,3.55,0,0,0,0,5l6.57,8.24a36.85,36.85,0,0,0-4.34,10.51L226.79,7.1a3.55,3.55,0,0,0-3.55,3.55h0v8A3.55,3.55,0,0,0,226.66,22Zm19.15-9.85a27.33,27.33,0,0,1,22.53-24.47,27.62,27.62,0,0,1,4.66-.39,27.33,27.33,0,0,1,0,54.66h-2.27a27.33,27.33,0,0,1-24.93-29.53v-.26Z"/><path class="m" d="M321.46,44.41c.56,3.94-5.35,10.91-2.89,14.06S329,57.42,332.89,59s6.9,10.08,10.71,9.53,4.43-9.85,7.59-12.19,12.05-.66,13.6-4.5S358.58,43,358,39.16s5.35-10.91,2.92-14-10.48,1.05-14.32-.46-6.9-10.08-10.71-9.53-4.43,9.85-7.59,12.19-12.05.66-13.6,4.5S320.9,40.6,321.46,44.41ZM332,38.67a8.38,8.38,0,1,1,4.68,10.88h0A8.38,8.38,0,0,1,332,38.7Z"/><path class="o" d="M321.46,44.41c.56,3.94-5.35,10.91-2.89,14.06S329,57.42,332.89,59s6.9,10.08,10.71,9.53,4.43-9.85,7.59-12.19,12.05-.66,13.6-4.5S358.58,43,358,39.16s5.35-10.91,2.92-14-10.48,1.05-14.32-.46-6.9-10.08-10.71-9.53-4.43,9.85-7.59,12.19-12.05.66-13.6,4.5S320.9,40.6,321.46,44.41ZM332,38.67a8.38,8.38,0,1,1,4.68,10.88h0A8.38,8.38,0,0,1,332,38.7Z"/><path class="p" d="M226.66,22,237,23.26a36.72,36.72,0,0,0,4.34,10.51L234.81,42a3.55,3.55,0,0,0,0,5l2.79,2.79,2.79,2.79a3.55,3.55,0,0,0,5,0L253.63,46a36.85,36.85,0,0,0,10.51,4.34l1.28,10.38a3.55,3.55,0,0,0,3.68,3.94H277a3.55,3.55,0,0,0,3.55-3.55h0l1.28-10.38a36.82,36.82,0,0,0,10.51-4.34L300.57,53a3.55,3.55,0,0,0,5,0l2.79-2.79,2.79-2.79a3.55,3.55,0,0,0,0-5l-6.57-8.24a36.82,36.82,0,0,0,4.34-10.51L319.42,22A3.55,3.55,0,0,0,323,18.69v-8a3.55,3.55,0,0,0-3.55-3.55h0L309,5.82a36.92,36.92,0,0,0-4.34-10.51l6.57-8.24a3.55,3.55,0,0,0,0-5l-2.92-2.79-2.79-2.79a3.55,3.55,0,0,0-5,0l-8.24,6.57a36.92,36.92,0,0,0-10.51-4.34l-1.28-10.38A3.55,3.55,0,0,0,277-35.21H269.1a3.55,3.55,0,0,0-3.55,3.55h0l-1.28,10.38a36.85,36.85,0,0,0-10.51,4.34l-8.24-6.57a3.55,3.55,0,0,0-5,0l-2.79,2.79-2.79,2.79a3.55,3.55,0,0,0,0,5l6.57,8.24a36.85,36.85,0,0,0-4.34,10.51L226.79,7.1a3.55,3.55,0,0,0-3.55,3.55h0v8A3.55,3.55,0,0,0,226.66,22Zm19.15-9.85a27.33,27.33,0,0,1,22.53-24.47,27.62,27.62,0,0,1,4.66-.39,27.33,27.33,0,0,1,0,54.66h-2.27a27.33,27.33,0,0,1-24.93-29.53v-.26Z"/><path class="q" d="M542,456.25a70,70,0,0,0,15.44-37.77,38.56,38.56,0,1,0-77.12,0v0a70.13,70.13,0,0,0,15.44,37.77,20.59,20.59,0,0,1,3.28,9.49h-5.19V471h41.68v4.43H493.78v5.29h50.16v-5.29h-3.28V471h3.28v-5.29h-5.16A20.4,20.4,0,0,1,542,456.25ZM498.28,426l5.22-1,.33,1.84,2.1-1h2.2l4.8,2.17,4.8-2.17h2.17l4.8,2.17,4.8-2.17h2.17l2.1,1,.33-1.84,5.22,1-7.16,39.81h-5.39l6-33.54-2.2-1-4.8,2.17h-2.17l-4.8-2.17-4.8,2.17h-2.17l-4.8-2.17-2.23,1,6,33.54H505.5Z"/><path class="r" d="M193.06,43.13v53.7a12.74,12.74,0,0,1-.66,22.8V108.79L187,105.71l-5.35,3.09v10.84a12.74,12.74,0,0,1-.66-22.8V43.13a12.74,12.74,0,0,1,.66-22.8V31.18L187,34.26l5.35-3.09V20.34a12.71,12.71,0,0,1,.66,22.76Z"/><g class="s"><path class="t" d="M265.92,141.67,294.62,151a40.76,40.76,0,0,1-11.79,14Z"/><path class="u" d="M258.79,131.46V81.79a47.43,47.43,0,0,1,14.52,2.46,50.45,50.45,0,0,1,32.85,62.41Z"/><path class="v" d="M257.7,173.54A41.29,41.29,0,0,1,228.5,103a39.78,39.78,0,0,1,22.73-11.69v43.06l2.33,3.28,23,31.5a41.45,41.45,0,0,1-18.76,4.5Z"/></g><rect class="k" x="718.25" y="454.51" width="9.33" height="80.21"/><rect class="k" x="658.31" y="454.51" width="58.07" height="80.21"/><path class="k" d="M634.89,454.51h10.38v80.21H634.89a5.12,5.12,0,0,1-5.12-5.12v-70a5.12,5.12,0,0,1,5.12-5.12Z"/><path class="k" d="M729.42,454.51H739.8a5.12,5.12,0,0,1,5.12,5.12v70a5.12,5.12,0,0,1-5.12,5.12H729.42Z"/><rect class="k" x="647.14" y="454.51" width="9.33" height="80.21"/><path class="k" d="M677.75,437.49h19.18a6.8,6.8,0,0,1,6.8,6.8h0v5.19h-3.28v-5.19a3.58,3.58,0,0,0-3.55-3.55H677.72a3.58,3.58,0,0,0-3.55,3.55v5.19h-3.28v-5.19a6.8,6.8,0,0,1,6.8-6.8Z"/><path class="k" d="M696.57,453.16h11.37a2.17,2.17,0,0,0-2.17-2.17h-7.13a2.17,2.17,0,0,0-2.17,2.17h.1Z"/><path class="k" d="M666.88,453.16h11.37a2.17,2.17,0,0,0-2.17-2.17h-7a2.17,2.17,0,0,0-2.17,2.17h0Z"/><path class="k" d="M7.11-1.51c0,9.07,4.37,14.29,13.37,17.28v-8l1-.3A199.91,199.91,0,0,1,71.26,1.81a202.21,202.21,0,0,1,49.83,5.62l1,.3V15.8c9-3,13.37-8.24,13.37-17.28-.16-25.82-36.85-42.93-64.22-42.93S7.11-27.29,7.11-1.51Zm100.51-14H82.46L80-11.3a32.29,32.29,0,0,0,.69-5.42l.43-.72h28.58a.3.3,0,0,1,.27.32.3.3,0,0,1-.08.18l-1.22,1.08A1.61,1.61,0,0,1,107.63-15.47Zm-5.06,2.59H81.91l1.22-2H104.7a.3.3,0,0,1,.27.32.3.3,0,0,1-.08.18l-1.22,1.08a1.61,1.61,0,0,1-1.12.39Zm-5,2.56H80.33l1.22-2h18.1a.3.3,0,0,1,.27.32.3.3,0,0,1-.08.18l-1.22,1.08A1.61,1.61,0,0,1,97.54-10.31ZM78.95-7.78l1.08-2H94.59a.3.3,0,0,1,.27.32.3.3,0,0,1-.08.18L93.57-8.21a1.61,1.61,0,0,1-1.08.43Zm-.36-6.57H80a19.12,19.12,0,0,1-1.45,5.78Zm-2.36,0h1.94v6.57a7.49,7.49,0,0,1-1.94,2.23Zm-2.36,0H75.8v9.2a7.06,7.06,0,0,1-1.94.85Zm-2.36,0h1.94V-4.3a9.85,9.85,0,0,1-1.94.2Zm-9.1-.72c0-1.61-.2-3.28-.23-5.06a.2.2,0,0,1,.26-.1.2.2,0,0,1,.1.1,5,5,0,0,0,3.65,1.51,8.61,8.61,0,0,0,4.66-1.64.69.69,0,0,1,.82,0,8.61,8.61,0,0,0,4.66,1.64A5,5,0,0,0,80-20.13a.2.2,0,0,1,.26-.1.2.2,0,0,1,.1.1,36.3,36.3,0,0,1-.23,5.06Zm6.57.72H70.9V-4A9.85,9.85,0,0,1,69-4.17Zm-2.36,0h1.94V-4.3a7.06,7.06,0,0,1-1.94-.85Zm-2.36,0h1.94v8.9a7.49,7.49,0,0,1-1.94-2.23Zm-.46,5.78a19.12,19.12,0,0,1-1.35-5.58h1.45Zm-16-1.25H62.33l1.08,2H50a1.61,1.61,0,0,1-1.08-.43L47.68-9.32a.3.3,0,0,1,.07-.41l.1,0Zm-5.06-2.53h18.1l1.22,2H45a1.61,1.61,0,0,1-1.08-.43l-1.22-1.08a.3.3,0,0,1,.05-.41l.08,0Zm-5-2.56H59.34l1.22,2H39.86a1.61,1.61,0,0,1-1.08-.43l-1.22-1.08a.3.3,0,0,1,0-.42A.3.3,0,0,1,37.76-14.91ZM32.7-17.44H61.41l.43.72a32.26,32.26,0,0,0,.69,5.42L60-15.47H34.8a1.61,1.61,0,0,1-1.08-.43L32.5-17a.3.3,0,0,1,.08-.41A.3.3,0,0,1,32.7-17.44Z"/><path class="k" d="M117.25,31.18c-1.31.26-2.92.53-4.89.82V20.34l4.89-.49Z"/><path class="k" d="M25.28,31.18c1.31.26,2.92.53,4.89.82V20.34l-4.89-.49Z"/><path class="k" d="M123.82,24.77c0,2.27-.69,4.07-1.54,4.07V20.7C123.23,20.7,123.82,22.54,123.82,24.77Z"/><path class="k" d="M18.51,24.77c0-2.27.69-4.07,1.54-4.07v8.15C19.2,28.84,18.51,27,18.51,24.77Z"/><path class="k" d="M116.26,50.26a14.49,14.49,0,0,0,3.28-11.07c-.46-2.33-.82-4.27-1.15-5.85-4.93,1.38-17.24,3.28-46.68,3.28a295.62,295.62,0,0,1-41.06-2.2,59.65,59.65,0,0,1-6.57-1.28c-.33,1.58-.69,3.55-1.15,5.91a14.49,14.49,0,0,0,3.28,11.1c7.46,8.74,26.28,9.49,45,9.49S108.81,59,116.26,50.26ZM60.42,54.07c0,.49-1.51.69-3.28.46a5.52,5.52,0,0,1-2.86-1h-.92l-1.81-.43h.2c1.38.72,2.33,1.61,2.14,2s-1.48,0-2.82-.66-2.33-1.61-2.14-2h0q-1.68-.43-3.28-.89a9.26,9.26,0,0,1,1.08,1c1.08,1.12,1.71,2.27,1.41,2.56s-1.41-.39-2.5-1.51S44,51.44,44.2,51.08l-2.59-1a9,9,0,0,1,.79,1.28c.69,1.38,1,2.63.59,2.82s-1.25-.79-1.94-2.14a5.39,5.39,0,0,1-.76-2.53q-1.28-.59-2.4-1.18a8.38,8.38,0,0,1,.72,1.58c.49,1.45.59,2.73.2,2.86s-1.12-.92-1.61-2.36a4.93,4.93,0,0,1-.36-2.66q-1.12-.66-2.07-1.31a8.77,8.77,0,0,1,.59,1.94c.3,1.58.23,2.92-.16,3s-1-1.15-1.31-2.73a5.16,5.16,0,0,1,0-2.89c-.66-.49-1.25-1-1.81-1.48a9.53,9.53,0,0,1,.26,1.84c0,1.64,0,3-.56,3s-.82-1.28-.92-2.89a6,6,0,0,1,.33-2.79q-.62-.86-1.15-1.77a11.56,11.56,0,0,1,.39,1.58c.3,1.71.2,3.28-.2,3.28s-1-1.25-1.28-3a4.89,4.89,0,0,1,0-3.28,10.87,10.87,0,0,1-1.05-1.87.43.43,0,0,1,.66-.39,11.33,11.33,0,0,0,1.35,2.3,7.49,7.49,0,0,1,2.79-.69c1.74,0,3.28,0,3.28.46s-1.35.89-3.05,1a9.85,9.85,0,0,1-2.3,0,21.65,21.65,0,0,0,1.81,2,8.08,8.08,0,0,1,2.82-.76c1.77-.2,3.28,0,3.28.36s-1.35.92-3.28,1.12a11.23,11.23,0,0,1-2.14,0q.72.62,1.58,1.28a7.49,7.49,0,0,1,3-1c1.81-.3,3.28-.23,3.28.2s-1.31,1-3.28,1.28a11.23,11.23,0,0,1-2.27.16q.89.62,1.94,1.25a9.39,9.39,0,0,1,3-1.08c1.91-.39,3.55-.39,3.61,0s-1.41,1.05-3.28,1.48a13.86,13.86,0,0,1-2.1.3l2,1a7.46,7.46,0,0,1,3.28-1.25c1.94-.39,3.55-.39,3.65,0s-1.41,1.05-3.28,1.48a13.14,13.14,0,0,1-2.4.3q1.35.56,2.82,1.08A9.53,9.53,0,0,1,48,49.11c2-.43,3.74-.46,3.81,0s-1.48,1.08-3.51,1.51a16.42,16.42,0,0,1-1.84.3l2.92.79a8.74,8.74,0,0,1,3.28-1.25c2-.43,3.74-.46,3.81,0S55,51.54,52.93,52l-1.58.26,1.58.3,1.38.23a7.75,7.75,0,0,1,2.46,0c2.23.26,3.55.85,3.48,1.35Zm54.1-15.67a10.87,10.87,0,0,1-1.15,2.1,4.89,4.89,0,0,1,0,3.28c-.3,1.71-.85,3.05-1.28,3s-.49-1.51-.2-3.28a11.53,11.53,0,0,1,.39-1.58,21.52,21.52,0,0,1-1.51,1.68,6,6,0,0,1,.33,2.79c0,1.64-.53,2.92-.92,2.89s-.66-1.38-.56-3a9.53,9.53,0,0,1,.26-1.84,21.82,21.82,0,0,1-1.81,1.48,5.16,5.16,0,0,1,0,2.89c-.3,1.58-.89,2.79-1.31,2.73s-.49-1.41-.16-3a8.77,8.77,0,0,1,.59-1.94q-1,.66-2.07,1.31a5,5,0,0,1-.36,2.66c-.49,1.45-1.22,2.5-1.61,2.36s-.3-1.41.2-2.86a8.41,8.41,0,0,1,.76-1.81q-1.12.62-2.4,1.18A5.39,5.39,0,0,1,101,52c-.69,1.38-1.58,2.33-1.94,2.14s0-1.45.59-2.82A9,9,0,0,1,100.4,50L97.8,51c.2.36-.43,1.45-1.45,2.5s-2.2,1.81-2.5,1.51.33-1.45,1.41-2.56a9.26,9.26,0,0,1,1.08-1q-1.51.46-3.28.89h0c.2.36-.76,1.25-2.14,2s-2.66,1-2.82.66.76-1.25,2.14-2h.2l-1.61.3h-.92a5.52,5.52,0,0,1-2.86,1c-1.71.23-3.28,0-3.28-.46s1.28-1.08,3-1.31a7.75,7.75,0,0,1,2.46,0l1.38-.23,1.58-.3-1.58-.26c-2-.43-3.58-1.12-3.51-1.51s1.81-.39,3.81,0a8.74,8.74,0,0,1,3.28,1.25l2.92-.79a16.42,16.42,0,0,1-1.84-.3c-2-.43-3.58-1.12-3.51-1.51s1.81-.39,3.81,0a9.53,9.53,0,0,1,3.28,1.18q1.51-.53,2.82-1.08a13.14,13.14,0,0,1-2.4-.3C95.34,48.29,94,47.63,94,47.21s1.71-.39,3.65,0a7.46,7.46,0,0,1,3.28,1.25l2-1a13.86,13.86,0,0,1-2.1-.3c-1.91-.39-3.28-1.05-3.28-1.48s1.71-.39,3.61,0a9.39,9.39,0,0,1,3,1.08q1.05-.62,1.94-1.25a11.23,11.23,0,0,1-2.27-.16c-1.81-.3-3.28-.89-3.28-1.28s1.58-.49,3.28-.2a7.49,7.49,0,0,1,3,1q.85-.66,1.58-1.28a11.23,11.23,0,0,1-2.14,0c-1.77-.2-3.28-.72-3.28-1.12s1.54-.59,3.28-.36a8.08,8.08,0,0,1,2.82.76,21.65,21.65,0,0,0,1.81-2,9.85,9.85,0,0,1-2.3,0c-1.74,0-3.09-.62-3.05-1s1.48-.62,3.28-.46a7.49,7.49,0,0,1,2.79.69,11.33,11.33,0,0,0,1.35-2.3.44.44,0,1,1,.82.3Z"/><path class="k" d="M22,45.27A14.55,14.55,0,0,0,25,51.18C32.9,60.38,52.11,61,71,61s38.27-.76,46-9.85a14.55,14.55,0,0,0,3.05-5.91c.85,19.31-24.7,20.63-49.27,20.63S21.2,64.68,22,45.27Z"/><path class="k" d="M71.26,23.13c-31.83,0-45.72-1.71-49.27-2.27v-12A196.33,196.33,0,0,1,71.26,3.26a198.63,198.63,0,0,1,49.27,5.58V20.93C116.92,21.42,103,23.13,71.26,23.13Z"/><path class="k" d="M71.26,32.85c31.83,0,45.72-2.86,49.27-3.78V31s-6.37,4.37-48.94,4.37S22,31,22,31V29.07C25.51,30,39.4,32.85,71.26,32.85Z"/><rect class="w" x="607.2" y="-2.52" width="30.15" height="6.44" transform="translate(619.84 622.97) rotate(-89.84)"/><rect class="w" x="607.98" y="52.03" width="3.68" height="13.86"/><rect class="w" x="633.61" y="52.03" width="3.65" height="13.86"/><path class="w" d="M590.44,57.68a6.37,6.37,0,0,0-2,2.79,2.07,2.07,0,0,0,0,1.48,3.28,3.28,0,0,0,1.45,1.31h0a14,14,0,0,0,6.83,1.05h71.08V68h-71a17.38,17.38,0,0,1-8.57-1.45h0a6.57,6.57,0,0,1-3.05-3,5.62,5.62,0,0,1-.3-4.07,9.85,9.85,0,0,1,3.05-4.5Z"/><ellipse class="k" cx="620.99" cy="29.63" rx="34.19" ry="27.1"/><polygon class="k" points="628.35 3.16 692.11 3.16 692.11 10.02 628.35 16.89 628.35 3.16"/><polygon class="x" points="685.34 -7.39 692.11 -7.39 692.11 6.61 679.69 5.95 685.34 -7.39"/><path class="y" d="M621.49,3V38.17H588.24C580.39,16.79,602.66,1.19,621.49,3Z"/><ellipse class="z" cx="635.51" cy="38.67" rx="10.15" ry="5.98"/><polygon class="x" points="587.55 36.04 620.2 35.77 620.2 3.03 622.77 3.03 622.77 38.17 622.77 39.45 621.49 39.45 589.26 39.45 587.55 36.04"/><path class="aa" d="M11.32,503.62a60.83,60.83,0,0,1,55.58-47.17"/><path class="ab" d="M69.06,456.38h1.51"/><rect class="d" x="229.03" y="307.65" width="80.21" height="112.44" rx="3.58" ry="3.58"/><rect class="ac" x="229.03" y="307.65" width="80.21" height="112.44" rx="3.58" ry="3.58"/><polygon class="ad" points="296.53 321.91 241.81 321.91 236.16 321.91 236.16 331.86 241.81 331.86 296.53 331.86 302.15 331.86 302.15 321.91 296.53 321.91"/><polygon class="ae" points="296.53 338.36 241.81 338.36 236.16 338.36 236.16 343.36 241.81 343.36 296.53 343.36 302.15 343.36 302.15 338.36 296.53 338.36"/><polygon class="ae" points="299.32 362.6 271.96 362.6 269.17 362.6 269.17 367.6 271.96 367.6 299.32 367.6 302.15 367.6 302.15 362.6 299.32 362.6"/><polygon class="af" points="259.84 351.11 238.39 351.11 236.16 351.11 236.16 380.34 238.39 380.34 259.84 380.34 262.04 380.34 262.04 351.11 259.84 351.11"/><polygon class="ae" points="299.32 374.72 271.96 374.72 269.17 374.72 269.17 379.72 271.96 379.72 299.32 379.72 302.15 379.72 302.15 374.72 299.32 374.72"/><polygon class="ae" points="297.78 386.84 255.21 386.84 250.84 386.84 250.84 391.84 255.21 391.84 297.78 391.84 302.15 391.84 302.15 386.84 297.78 386.84"/><polygon class="ae" points="299.09 398.96 296.1 398.96 293.08 398.96 269.56 398.96 266.54 398.96 263.71 398.96 260.69 398.96 260.69 403.96 263.71 403.96 266.54 403.96 269.56 403.96 293.08 403.96 296.1 403.96 299.09 403.96 302.15 403.96 302.15 398.96 299.09 398.96"/><polygon class="ae" points="299.32 350.48 271.96 350.48 269.17 350.48 269.17 355.48 271.96 355.48 299.32 355.48 302.15 355.48 302.15 350.48 299.32 350.48"/><rect class="ag" x="229.03" y="307.65" width="80.21" height="112.44" rx="3.58" ry="3.58"/><circle class="x" cx="240.56" cy="408.56" r="17.47"/><path class="p" d="M236,403a4.57,4.57,0,0,1,9.13,0h0v4l2.43.23V403a7,7,0,1,0-14,0v4.2L236,407Z"/><path class="d" d="M249.75,407.37a1.18,1.18,0,0,0-1.12-1.08,49.83,49.83,0,0,0-8.11-.56h0a49.83,49.83,0,0,0-8.11.56,1.18,1.18,0,0,0-1.08,1.08l-.66,11.33a1.18,1.18,0,0,0,1.08,1.08,55.35,55.35,0,0,0,8.77.59h0a55.35,55.35,0,0,0,8.77-.59,1.18,1.18,0,0,0,1.08-1.08Zm-7.55,9.85h-3.28a.56.56,0,0,1-.56-.56l1-3.94a2.14,2.14,0,1,1,2.14,0l1.12,3.94a.56.56,0,0,1-.45.65h-.11Z"/><circle class="d" cx="36.08" cy="351.24" r="8.74"/><path class="d" d="M31.85,395H23V373.08a8.77,8.77,0,0,1,8.8-8.74H58.12v8.74H31.85Z"/><polygon class="d" points="49.22 421.2 40.45 421.2 40.45 394.96 36.08 394.96 36.08 421.2 27.35 421.2 27.35 386.22 49.22 386.22 49.22 421.2"/><rect class="d" x="27.35" y="368.71" width="21.88" height="26.24"/><circle class="d" cx="114.82" cy="351.24" r="8.74"/><path class="d" d="M127.92,395h-8.74V373.08H92.91v-8.74h26.28a8.77,8.77,0,0,1,8.74,8.74Z"/><polygon class="d" points="123.56 421.2 114.82 421.2 114.82 394.96 110.42 394.96 110.42 421.2 101.68 421.2 101.68 386.22 123.56 386.22 123.56 421.2"/><rect class="d" x="101.68" y="368.71" width="21.88" height="26.24"/><circle class="d" cx="75.44" cy="351.24" r="8.74"/><rect class="d" x="66.7" y="368.71" width="17.51" height="52.49"/><path class="d" d="M88.57,390.59H79.8V373.08H71.07v17.51H62.33V373.08a8.77,8.77,0,0,1,8.74-8.74H79.8a8.77,8.77,0,0,1,8.74,8.74Z"/><polygon class="l" points="380.03 97.3 369.45 86.72 380.03 76.18 377.14 73.29 366.59 83.86 356.01 73.29 353.12 76.18 363.7 86.72 353.12 97.3 356.01 100.19 366.59 89.61 377.14 100.19 380.03 97.3"/><polygon class="l" points="612.95 424.22 602.37 413.65 612.95 403.07 610.05 400.21 599.51 410.76 588.93 400.21 586.04 403.07 596.62 413.65 586.04 424.22 588.93 427.08 599.51 416.54 610.05 427.08 612.95 424.22"/><rect class="ah" x="-1" y="-47" width="768.62" height="748.91"/></g></svg>