<svg id="Layer_1" data-name="Layer 1" xmlns="http://www.w3.org/2000/svg" width="200" height="80" viewBox="0 0 200 80"><title>abadvert</title><text transform="translate(63.75 45.04)" style="font-size:17.18467140197754px;fill:#888;font-family:Montserrat-Medium, Montserrat Medium"><tspan style="letter-spacing:0.0029834455399653506em">a</tspan><tspan x="10.33" y="0">d</tspan><tspan x="22.05" y="0" style="letter-spacing:-0.014974055233921332em">v</tspan><tspan x="31.4" y="0">e</tspan><tspan x="41.91" y="0" style="letter-spacing:0.014945641466874042em">r</tspan><tspan x="49.22" y="0">tise </tspan><tspan x="84.87" y="0" style="letter-spacing:0.0029550317729180615em">h</tspan><tspan x="96.63" y="0">e</tspan><tspan x="107.14" y="0" style="letter-spacing:-0.01199060969395598em">r</tspan><tspan x="113.98" y="0">e</tspan></text><path d="M44.7,28.07,29.08,34.32H24.84A2.85,2.85,0,0,0,22,37.16v3.47a2.58,2.58,0,0,0,2.84,2.53h1.07l1.15,8A1,1,0,0,0,28,52h3.79a.95.95,0,0,0,.94-1.05L32,44.32,44.7,49.41a.95.95,0,0,0,1.3-.88V28.95a.95.95,0,0,0-1.3-.88Z" style="fill:#0071bc"/><path d="M48.81,36,52,33.48A.95.95,0,1,0,50.78,32l-3.16,2.53A.95.95,0,0,0,48.81,36Z" style="fill:#29abe2"/><path d="M48.81,42.73a.95.95,0,1,0-1.18,1.48l3.16,2.53A.95.95,0,0,0,52,45.26Z" style="fill:#29abe2"/><path d="M51.37,38.42H48.21a.95.95,0,0,0,0,1.89h3.16a.95.95,0,1,0,0-1.89Z" style="fill:#29abe2"/></svg>