<svg id="Layer_1" data-name="Layer 1" xmlns="http://www.w3.org/2000/svg" viewBox="0 0 50 50"><defs><style>.cls-1{fill:#ddd;}.cls-2{fill:none;stroke:#ddd;stroke-miterlimit:10;}</style></defs><title>IdeaArtboard 1</title><path class="cls-1" d="M36.56,31.94H34.25a4.63,4.63,0,0,1-4.63-4.63V25.83a11.69,11.69,0,0,0,2.21-4.17c0-.26.29-.38.46-.56a2.86,2.86,0,0,0,.4-3.44c-.09-.16-.25-.3-.24-.5,0-1.36,0-2.71,0-4.07A6.79,6.79,0,0,0,30.8,8.53a6.46,6.46,0,0,0-3.51-1.81,11.65,11.65,0,0,0-5,.12,6.1,6.1,0,0,0-3.59,2.43,7,7,0,0,0-1.11,3.66c0,1.38,0,2.76,0,4.15,0,.28-.2.46-.31.69a2.87,2.87,0,0,0,.65,3.51,1.35,1.35,0,0,1,.4.77,11.19,11.19,0,0,0,2.08,3.73v1.54a4.63,4.63,0,0,1-4.62,4.63H13.44S9.25,33.09,6.5,38.88v2.31A5.11,5.11,0,0,1,8.81,44H41.19c-.19-1,2.31-1.53,2.31-2.81V38.88C40.75,33.09,36.56,31.94,36.56,31.94Z"/><circle class="cls-2" cx="25" cy="25" r="24.5"/><path class="cls-1" d="M11.66,45.57A15.84,15.84,0,0,0,14.1,46a15.14,15.14,0,0,0,2.57.26,1.5,1.5,0,0,0,0-3,13.78,13.78,0,0,1-4.21-.6c-1.83-.62-2.62,2.27-.8,2.89Z"/><path class="cls-1" d="M12.2,44.44a1.5,1.5,0,0,0,0-3,1.5,1.5,0,0,0,0,3Z"/><path class="cls-1" d="M11,45.13h.07a1.5,1.5,0,0,0,0-3H11a1.5,1.5,0,1,0,0,3Z"/><path class="cls-1" d="M18.7,46.15l.66.17a1.5,1.5,0,1,0,.8-2.89l-.66-.17a1.5,1.5,0,1,0-.8,2.89Z"/><path class="cls-1" d="M21.68,46.85c1.18-.28,2.39-.4,3.57-.66l-1.46-2.51c-1.49,1.41-5,1.06-6.88.74-1.11-.18-.44-.18-.74-.14s-.95-.46-1.24-.57l-.4,2.95a4.55,4.55,0,0,1,2.07.92L17.67,45l-.88-.1c-1.75-.17-1.94,2.45-.4,2.95,3.89,1.25,5.31.94,9.37,1.18V46a16.56,16.56,0,0,0-2.28.31,1.51,1.51,0,0,0-.9,2.2l0,.05a1.51,1.51,0,0,0,2.36.3c1.41-1.79,4-2.87,3.27-5.46a1.52,1.52,0,0,0-2.74-.36c-.74,1.5-.27,2.95-.05,4.51l1-1.85a2.58,2.58,0,0,0-1.74,1.13,1.51,1.51,0,0,0,.9,2.2c2.16.39,4-.89,6.12-1L31,45.26l-.41.23a1.51,1.51,0,0,0,1.16,2.74c2.59-.72,6.11-1.73,7.78-3.39.85-.84.28-2.7-1.06-2.56-2.71.29-7.9,1.59-10.1,1.12-1.88-.4-2.69,2.49-.8,2.89,2.86.61,7.64-.67,10.9-1l-1.06-2.56c-.71.7.44-.06-.8.55a15.75,15.75,0,0,1-1.93.78c-1.23.43-2.48.94-3.73,1.29l1.16,2.74.41-.23c1.24-.7.76-2.91-.76-2.8-1.74.13-4.59,1.29-5.32,1.15l.9,2.2q-.85.56-.05.25a1.55,1.55,0,0,0,1-1.85c-.08-.57-.52-1.65-.25-2.2l-2.74-.36c0-.18-.16.14-1.15,1.15a17.4,17.4,0,0,0-1.35,1.4l2.36.3,0-.05-.9,2.2a10.62,10.62,0,0,1,1.48-.2,1.5,1.5,0,0,0,0-3c-3.06-.18-5.58-.11-8.57-1.08l-.4,2.95.88.1a1.51,1.51,0,0,0,1.06-2.56,7,7,0,0,0-4.19-1.79,1.51,1.51,0,0,0-.4,2.95c1.33.52-.21.14,1,.52a13.53,13.53,0,0,0,2.32.49c2.5.3,6.58,0,8.46-1.81a1.51,1.51,0,0,0-1.46-2.51c-1.18.26-2.39.37-3.57.66-1.88.45-1.08,3.35.8,2.89Z"/><path class="cls-1" d="M28.33,49.1a2.3,2.3,0,0,0,2.06,0c.13-.1.07-.07-.05,0,.12-.05.25-.08.37-.13a1.76,1.76,0,0,0,1-1.11,1.51,1.51,0,0,0-1-1.85,1.54,1.54,0,0,0-1.85,1l0,.09.69-.9c.12-.08.22-.09,0,0s-.52.18-.51.23c0-.09,1,0,.54-.11a3.24,3.24,0,0,1-.39-.1,1.51,1.51,0,0,0-1.85,1,1.54,1.54,0,0,0,1,1.85Z"/></svg>