<?xml version="1.0" encoding="utf-8"?>
<!-- Generator: Adobe Illustrator 19.1.1, SVG Export Plug-In . SVG Version: 6.00 Build 0)  -->
<svg version="1.1" id="Capa_1" xmlns="http://www.w3.org/2000/svg" xmlns:xlink="http://www.w3.org/1999/xlink" x="0px" y="0px"
	 viewBox="-222 224.5 53.5 53.5" style="enable-background:new -222 224.5 53.5 53.5;" xml:space="preserve">
<style type="text/css">
	.st0{fill:#999999;}
</style>
<g>
	<g>
		<ellipse class="st0" cx="-194.5" cy="229" rx="4.8" ry="4.5"/>
		<path class="st0" d="M-192.8,235.6c-1.2-0.2-2.5-0.2-3.7,0c-8,0.9-10.6,9.6-9.9,16.2c0.3,2.9,5.2,2.9,4.8,0
			c-0.3-2.4-0.2-6,1.2-8.6c0,3.1,0,6.3,0,9.4c0,0.1,0,0.2,0,0.3c0,0.1,0,0.1,0,0.1c0,7.5,0,15-0.3,22.4c-0.1,3.3,5.4,3.3,5.5,0
			c0.3-5.9,0.3-11.7,0.3-17.6c0.3,0,0.5,0,0.8,0c0,5.9,0.1,11.7,0.3,17.6c0.1,3.3,5.7,3.3,5.5,0c-0.3-7.5-0.3-14.9-0.3-22.4
			c0-0.2,0-0.4-0.1-0.6c0-3.2-0.1-6.5-0.1-9.7c1.6,2.6,1.8,6.6,1.5,9.1c-0.3,2.9,4.5,2.9,4.8,0
			C-181.6,245.1-184.4,236.2-192.8,235.6z"/>
	</g>
</g>
</svg>
