<?xml version="1.0" encoding="utf-8"?>
<!-- Generator: Adobe Illustrator 19.1.1, SVG Export Plug-In . SVG Version: 6.00 Build 0)  -->
<svg version="1.1" id="Layer_1" xmlns="http://www.w3.org/2000/svg" xmlns:xlink="http://www.w3.org/1999/xlink" x="0px" y="0px"
	 viewBox="6 -6 512 512" style="enable-background:new 6 -6 512 512;" xml:space="preserve">
<style type="text/css">
	.st0{fill:#999999;}
</style>
<g>
	<g>
		<path class="st0" d="M396.7,272.3c-0.3-0.9-34.6-89.8-49.7-131.4c-9.7-26.9-26.1-40.5-48.5-40.5c-31.3,0-41.7,0-72.9,0
			c-22.5,0-38.8,13.6-48.5,40.5c-15.1,41.6-49.4,130.5-49.7,131.4c-4,10.3,1.6,21.7,12.5,25.5c10.9,3.8,22.9-1.5,26.9-11.9
			c0.3-0.7,23.8-61.7,40.6-106.5c1.5,4.7,4.6,8.7,8.6,11.5l0.1,29.1l-36.1,86.3c-2,4.7,0.9,10,6.1,11.1c5.4,1.2,12.5,2.9,20.3,4.7
			v159.6c0,13.2,11.3,23.9,25.2,23.9s25.2-10.7,25.2-23.9V333.5c3.6,0.3,7.3,0.3,10.9,0v148.4c0,13.2,11.3,23.9,25.2,23.9
			c13.9,0,25.2-10.7,25.2-23.9V322.2c7.7-1.8,14.9-3.5,20.3-4.7c5.1-1.2,8.1-6.4,6.1-11.1L308.1,220l0.1-29.1
			c4-2.8,7.1-6.8,8.6-11.5c16.8,44.9,40.3,105.8,40.6,106.5c4,10.3,16,15.6,26.9,11.9C395.1,294,400.7,282.6,396.7,272.3z"/>
	</g>
</g>
<g>
	<g>
		<ellipse class="st0" cx="262" cy="42.4" rx="45.9" ry="43.4"/>
	</g>
</g>
</svg>
