<svg id="Layer_1" data-name="Layer 1" xmlns="http://www.w3.org/2000/svg" viewBox="0 0 800 143.71"><title>Airbook</title><path d="M120.05,140.78,93.7,137.4c-9.69,3.38-21.62,5-33.56,5-26.58,0-52.93-8.33-57.21-24.55A103.63,103.63,0,0,1,0,91.9,108,108,0,0,1,2.93,65.78C7,49.33,33.34,41,59.91,41s53.16,8.33,57.43,25.23a97.4,97.4,0,0,1,2.7,23.65ZM93.7,91.45A116.48,116.48,0,0,0,92.12,71C89.64,57.44,75,50.68,59.91,50.68c-14.64,0-29.73,6.76-32,20A124.62,124.62,0,0,0,26.35,91.9a124.6,124.6,0,0,0,1.58,21.17c2.25,13.06,17.34,19.82,32.21,19.82,12.39,0,24.78-2.25,33.56-7.21Z" fill="#2272ba"/><path d="M169.37,22.53c-2,9.23-28.15,9-30.41.45a36.39,36.39,0,0,1,0-14c2.25-8.78,28.15-8.78,30.41.22A26.56,26.56,0,0,1,169.37,22.53ZM141,140.78V43.7l26.35,3.6v93.47Z" fill="#2272ba"/><path d="M215.09,140.78H188.73V43.7l24.33,3.15C223.2,43,235.58,41,248.2,41c3.38,0,6.76.23,10.14.45v9.46c-3.15-.23-6.31-.45-9.46-.45-14.87,0-30,6.76-32.21,20.27a143.15,143.15,0,0,0-1.58,20.5v49.55Z" fill="#2272ba"/><path d="M277,.46l26.35,3.38v42.8c9.91-3.38,21.85-5,33.79-5,26.35,0,52.93,8.33,57,24.55a104.93,104.93,0,0,1,2.93,25.9,106.79,106.79,0,0,1-2.93,26.13c-4.28,16.67-30.63,25-57,25-26.58,0-52.93-8.56-57.21-25.45A90.81,90.81,0,0,1,277,92.35Zm26.35,91.9A119.23,119.23,0,0,0,305,113.07c2.48,13.74,17.12,20.5,32.21,20.5,14.86,0,29.5-6.76,32-20.27a124.4,124.4,0,0,0,1.58-21.17,123.49,123.49,0,0,0-1.58-20.95c-2.25-13.06-17.12-20-32-20-12.61,0-25,2.48-33.79,7.21Z" fill="#be1e2d"/><path d="M532.43,116.9c-8.33,34.46-106.09,33.34-114.42.9-3.83-15.32-3.83-36.49,0-52,8.33-33.11,106.09-33.11,114.42.45C536,81.32,536.26,101.59,532.43,116.9ZM443,70.73a148.12,148.12,0,0,0,0,42.34c4.73,26.13,59.69,27,64.42-.9A133.08,133.08,0,0,0,507.2,71C502.47,43.7,447.74,43.93,443,70.73Z" fill="#be1e2d"/><path d="M671.85,116.9c-8.34,34.46-106.09,33.34-114.42.9-3.83-15.32-3.83-36.49,0-52,8.33-33.11,106.09-33.11,114.42.45C675.45,81.32,675.67,101.59,671.85,116.9ZM582.43,70.73a148,148,0,0,0,0,42.34c4.73,26.13,59.69,27,64.41-.9A133,133,0,0,0,646.62,71C641.89,43.7,587.16,43.93,582.43,70.73Z" fill="#be1e2d"/><path d="M722.52,3.84v96.85l40.09,40.09H800l-52-52,42.79-43H777.48l-55,55v40.09H696.17V.46Z" fill="#be1e2d"/></svg>