<svg id="Layer_1" data-name="Layer 1" xmlns="http://www.w3.org/2000/svg" viewBox="0 0 2745 907"><defs><style>.cls-1,.cls-2{fill:#05014a;}.cls-1{fill-rule:evenodd;}</style></defs><title>Artboard 1</title><path class="cls-1" d="M160.13,511.44,112,690.88l48.08-179.43ZM278.5,69.68l-74,276,74-276ZM193.18,520.27a34.21,34.21,0,0,0-66.09-17.66L79,682a34.21,34.21,0,0,0,66.09,17.66l48.08-179.43ZM584.7,573.19a34.21,34.21,0,1,0-66.09-17.66L439,852.76a34.21,34.21,0,0,0,66.09,17.66L584.7,573.19ZM708.63,110.66A34.21,34.21,0,1,0,642.54,93l-69,257.59a34.21,34.21,0,1,0,66.09,17.66l69-257.59ZM894.08,428A34.21,34.21,0,0,0,828,410.3L758.21,670.69a34.21,34.21,0,1,0,66.09,17.66L894.08,428ZM311.54,78.51a34.21,34.21,0,0,0-66.09-17.66l-74,276a34.2,34.2,0,1,0,66.09,17.66Z"/><path class="cls-2" d="M332.35,505.57a34.2,34.2,0,1,0-66.09-17.66L186.62,785.14a34.21,34.21,0,0,0,66.09,17.66l79.64-297.23ZM697.88,655.5a34.21,34.21,0,0,0-66.09-17.66L583.7,817.28a34.21,34.21,0,1,0,66.09,17.66L697.88,655.5ZM816.25,213.75a34.21,34.21,0,0,0-66.09-17.66l-74,276a34.21,34.21,0,0,0,66.09,17.66l74-276ZM587.9,56.54a34.21,34.21,0,0,0-66.09-17.66L510.89,79.63A34.21,34.21,0,1,0,577,97.29L587.9,56.54ZM137,225.11a34.2,34.2,0,1,0-66.09-17.66L1.17,467.83a34.21,34.21,0,0,0,66.09,17.66L137,225.11ZM456.28,43a34.21,34.21,0,0,0-66.09-17.66L321.17,283a34.21,34.21,0,1,0,66.09,17.66Z"/><path class="cls-2" d="M439.37,346.56c-94.54,21.28-188.07,46.83-281.88,71.09C145.9,428,137,449.06,142.62,450.58c21.24,5.78,244.18-28.57,266.5,8.86L307.35,839.26a34.2,34.2,0,1,0,66.09,17.66L475.19,477.15c38-21.25,213.94,120,235.23,125.58,5.62,1.49,8.46-21.2,3.59-35.95C644.9,498.86,576.68,430,505.44,364.26L552,190.48a34.21,34.21,0,1,0-66.09-17.66Z"/><path class="cls-2" d="M1110.52,213.62c66.84,0,95.7,45.29,95.7,96.79,0,51.87-30,98.62-96.79,98.62-52.6,0-94.24-32.51-94.24-97.16C1015.19,267.32,1037.84,213.62,1110.52,213.62Zm.73,157.79c23.74,0,39.81-14.25,39.81-63.19,0-24.47-4.75-58.44-40.54-58.44-39.45,0-39.81,45.66-39.81,62.46C1070.71,353.52,1084.59,371.42,1111.25,371.42Z"/><path class="cls-2" d="M1281.82,218l34.7,60.27L1352.68,218h56.25L1349,307.86l61.73,94.6h-63.92l-37.26-67.57L1272,402.46h-56.61l61.73-99L1217.9,218Z"/><path class="cls-2" d="M1478.69,218l40.54,127.84L1560.51,218h53.69l-69.76,181.17-22.28,73.42h-54.42l23.38-69.4L1420.25,218Z"/><path class="cls-2" d="M1809.62,218.74a413,413,0,0,0-2.55,45.66V400.64c0,67.94-56.61,74.51-92,74.51-26.3,0-77.8-3.29-81.09-59.17h51.86c.73,5.48,3.29,25.57,32.14,25.57,16.07,0,30-7.67,33.6-24.11,2.19-9.13,2.19-15.7,2.56-43.83-17.17,22.65-36.53,25.2-49.68,25.2-53,0-77.8-46-77.8-90.58,0-46.75,25.93-91.32,78.89-91.32,33.6,0,46,18.26,51.5,26.3l1.82-24.47Zm-92.77,143.18c38,0,38-44.56,38-52.6,0-20.82-4-56.25-36.89-56.25-20.45,0-37.26,15.71-37.26,55.16C1680.68,317.36,1680.68,361.92,1716.84,361.92Z"/><path class="cls-2" d="M1894,323.93c0,12.05,0,49.31,37.62,49.31,13.51,0,27-5.11,32.14-25.57h49.31c-.73,8.76-2.56,24.47-17.53,40.18-13.52,14.24-37.62,21.55-64.65,21.55-15.71,0-45.65-2.92-65-23-16.8-17.53-23.74-42.37-23.74-72,0-30,7.3-65.75,38.35-87.3a92.47,92.47,0,0,1,51.87-15.34c26.3,0,57.71,10.23,74.51,44.56,12.42,25.2,11.69,52.23,11,67.57Zm68.67-34c0-8.4-.73-41.27-32.14-41.27-23.74,0-33.6,19.72-34.7,41.27Z"/><path class="cls-2" d="M2054.34,250.88c0-.73,0-20.82-1.09-33.6h51.87l1.46,27.76c5.11-8.4,19.72-32.14,59.9-32.14,36.16,0,51.5,21.92,56.25,34.7,4,11.32,5.11,20.82,5.11,55.15v99.72h-55.15V287.77c0-7.67,0-14.25-2.92-20.09-4-8-12.42-15.71-26.3-15.71-11.69,0-22.28,5.48-28.12,14.24-3.29,4.75-6.57,13.88-6.57,28.13V402.46h-54.43Z"/><path class="cls-2" d="M1134.26,704.79a147.65,147.65,0,0,1-1.83-25.2c-20.45,29.59-44.93,29.59-55.15,29.59-26.66,0-38.72-7.67-46-14.61-11-11-16.07-25.93-16.07-40.54s5.11-41.64,39.08-57.34c22.65-10.23,55.15-10.23,73.05-10.23,0-12.05-.36-17.9-2.56-24.47-4.75-13.51-19-15.34-24.11-15.34-7.67,0-15.71,3.29-20.45,10.23-4,6.21-4,12.05-4,16.44h-53c.36-9.86,1.46-29.59,20.82-43.47,16.8-12.05,38.35-15,55.88-15,15.34,0,47.48,2.56,65.75,23.74,12.42,15,12.78,36.89,12.78,45.29l.37,74.15c0,15.71,1.09,31.41,4.38,46.75Zm-66.48-57c0,12.42,8.4,26.3,26.3,26.3a30.62,30.62,0,0,0,23-10.59c9.5-11.69,10.23-25.93,10.23-45.66C1092.63,614.94,1067.79,625.9,1067.79,647.82Z"/><path class="cls-2" d="M1270.14,626.26c0,12.05,0,49.31,37.62,49.31,13.51,0,27-5.11,32.14-25.57h49.31c-.73,8.76-2.56,24.47-17.53,40.18-13.52,14.24-37.62,21.55-64.65,21.55-15.71,0-45.65-2.92-65-23-16.8-17.53-23.74-42.37-23.74-72,0-30,7.3-65.75,38.35-87.3a92.49,92.49,0,0,1,51.87-15.34c26.3,0,57.71,10.23,74.51,44.56,12.42,25.2,11.69,52.23,11,67.57Zm68.67-34c0-8.4-.73-41.27-32.14-41.27-23.74,0-33.6,19.72-34.7,41.27Z"/><path class="cls-2" d="M1429.75,565.63c0-8.76-1.46-35.43-2.56-46H1478l1.09,35.43c6.94-15.71,19-38,62.82-35.8v48.58c-54.79-5.11-58.08,23-58.08,46v90.95h-54.06Z"/><path class="cls-2" d="M1649.63,516c66.84,0,95.7,45.29,95.7,96.79,0,51.87-30,98.62-96.79,98.62-52.6,0-94.24-32.51-94.24-97.16C1554.3,569.65,1576.95,516,1649.63,516Zm.73,157.79c23.74,0,39.81-14.25,39.81-63.19,0-24.47-4.75-58.44-40.54-58.44-39.45,0-39.81,45.66-39.81,62.46C1609.82,655.85,1623.7,673.75,1650.36,673.75Z"/><path class="cls-2" d="M1823.49,651.47c.73,11.69,8,25.2,30.68,25.2,19.36,0,28.49-11,28.49-21.92,0-8.4-4.38-15-25.57-20.82l-33.6-9.13c-15-4.38-46.75-13.51-46.75-51.13,0-35.8,32.87-57.71,80.72-57.71,38,0,68.67,17.53,70.13,54.43h-49.31c-1.46-20.45-17.9-21.92-26.3-21.92-14.61,0-25.57,6.94-25.57,18.26,0,12.42,9.13,15,25.2,19.36l33.24,9.13c33.6,9.13,49.31,26.3,49.31,51.5,0,31.78-27.4,63.55-84.74,63.55-23.74,0-46.39-5.11-63.19-22.65-12.05-12.78-13.15-27.39-13.51-36.16Z"/><path class="cls-2" d="M2019.27,520.34l1.46,26.3c16.8-29.59,47.48-30,56.25-30,47.85,0,76.7,35.79,76.7,92,0,52.23-27,98.62-80.36,98.62-33.24,0-46.75-17.53-51.5-23.74v92h-55.15V520.34Zm79.63,90.58c0-21.92-5.48-59.54-37.26-59.54-17.53,0-42.37,13.15-42.37,62.82,0,11,.36,57.71,40.18,57.71C2085,671.92,2098.89,647.45,2098.89,610.92Z"/><path class="cls-2" d="M2302.34,704.79a147.76,147.76,0,0,1-1.82-25.2c-20.45,29.59-44.93,29.59-55.16,29.59-26.66,0-38.72-7.67-46-14.61-11-11-16.07-25.93-16.07-40.54s5.11-41.64,39.08-57.34c22.65-10.23,55.16-10.23,73.05-10.23,0-12.05-.36-17.9-2.56-24.47-4.75-13.51-19-15.34-24.11-15.34-7.67,0-15.71,3.29-20.45,10.23-4,6.21-4,12.05-4,16.44h-53c.36-9.86,1.46-29.59,20.82-43.47,16.8-12.05,38.35-15,55.88-15,15.34,0,47.48,2.56,65.75,23.74,12.42,15,12.78,36.89,12.78,45.29l.37,74.15c0,15.71,1.09,31.41,4.38,46.75Zm-66.48-57c0,12.42,8.4,26.3,26.3,26.3a30.62,30.62,0,0,0,23-10.59c9.5-11.69,10.23-25.93,10.23-45.66C2260.7,614.94,2235.86,625.9,2235.86,647.82Z"/><path class="cls-2" d="M2492.27,585.72c-.73-6.57-2.92-34-23.74-34-25.57,0-28.49,38.72-28.49,58.81,0,10.23,1.09,43.1,13.51,56.61a18.71,18.71,0,0,0,14.61,6.21c5.84,0,22.65-2.56,24.84-35.43h53.32c-.73,14.24-2.55,36.53-23.74,54.42-13.15,11.32-29.58,17.17-52.59,17.17-24.47,0-46-5.48-62.82-24.47-16.07-18.63-23.38-43.1-23.38-72.69,0-84,61.73-95.7,86.2-95.7,34.33,0,74.88,19,75.24,69Z"/><path class="cls-2" d="M2620.83,626.26c0,12.05,0,49.31,37.62,49.31,13.51,0,27-5.11,32.14-25.57h49.31c-.73,8.76-2.56,24.47-17.53,40.18-13.52,14.24-37.62,21.55-64.65,21.55-15.71,0-45.65-2.92-65-23-16.8-17.53-23.74-42.37-23.74-72,0-30,7.3-65.75,38.35-87.3a92.49,92.49,0,0,1,51.87-15.34c26.3,0,57.71,10.23,74.51,44.56,12.42,25.2,11.69,52.23,11,67.57Zm68.67-34c0-8.4-.73-41.27-32.14-41.27-23.74,0-33.6,19.72-34.7,41.27Z"/></svg>