<svg id="Layer_1" data-name="Layer 1" xmlns="http://www.w3.org/2000/svg" width="96" height="65" viewBox="0 0 96 65"><title>Airbook_load</title><path d="M46,54.35l-8.25-1.06a32.86,32.86,0,0,1-10.5,1.55c-8.32,0-16.56-2.61-17.9-7.68a32.43,32.43,0,0,1-.92-8.1,33.8,33.8,0,0,1,.92-8.18c1.27-5.14,9.51-7.75,17.83-7.75s16.63,2.61,18,7.89a30.48,30.48,0,0,1,.85,7.4ZM37.72,38.91a36.45,36.45,0,0,0-.49-6.41c-.78-4.23-5.36-6.34-10.08-6.34s-9.3,2.11-10,6.27a39,39,0,0,0-.49,6.62,39,39,0,0,0,.49,6.62c.7,4.09,5.43,6.2,10.08,6.2,3.88,0,7.75-.7,10.5-2.26Z" style="fill:#39f"/><path d="M50,10.16l8.25,1.06V24.61a33.61,33.61,0,0,1,10.57-1.55c8.25,0,16.56,2.61,17.83,7.68a32.83,32.83,0,0,1,.92,8.11A33.41,33.41,0,0,1,86.68,47c-1.34,5.21-9.59,7.82-17.83,7.82s-16.56-2.68-17.9-8a28.41,28.41,0,0,1-.92-8Zm8.25,28.75a37.31,37.31,0,0,0,.49,6.48c.78,4.3,5.36,6.41,10.08,6.41s9.23-2.11,10-6.34a38.92,38.92,0,0,0,.49-6.62,38.64,38.64,0,0,0-.49-6.55c-.7-4.09-5.36-6.27-10-6.27a23.19,23.19,0,0,0-10.57,2.26Z" style="fill:#39f"/></svg>