<svg xmlns="http://www.w3.org/2000/svg" viewBox="0 0 106 67"><title>Airbook_UserConsole_Brand</title><rect width="106" height="67" rx="3" ry="3" fill="#3a3a5d"/><path d="M22.56,40.78l-2.87-.36a11.74,11.74,0,0,1-3.65.52c-2.89,0-5.76-.88-6.22-2.59a10.64,10.64,0,0,1-.32-2.73,11.09,11.09,0,0,1,.32-2.76c.44-1.74,3.31-2.62,6.2-2.62s5.78.88,6.25,2.66a10,10,0,0,1,.29,2.5Zm-2.87-5.21a12,12,0,0,0-.17-2.16c-.27-1.43-1.86-2.14-3.5-2.14s-3.23.71-3.48,2.12a14.66,14.66,0,0,0,0,4.47c.24,1.38,1.89,2.09,3.5,2.09a7.91,7.91,0,0,0,3.65-.76Z" fill="#2c77f4"/><path d="M27.92,28.29c-.22,1-3.06,1-3.31,0a3.73,3.73,0,0,1,0-1.47c.24-.93,3.06-.93,3.31,0A2.73,2.73,0,0,1,27.92,28.29ZM24.83,40.78V30.53l2.87.38v9.87Z" fill="#2c77f4"/><path d="M32.89,40.78H30V30.53l2.65.33a11.36,11.36,0,0,1,3.82-.62c.37,0,.73,0,1.1,0v1c-.34,0-.69,0-1,0-1.62,0-3.26.71-3.5,2.14a14.68,14.68,0,0,0-.17,2.16v5.23Z" fill="#2c77f4"/><path d="M39.63,26l2.87.36v4.52a12,12,0,0,1,3.67-.52c2.87,0,5.76.88,6.2,2.59a10.77,10.77,0,0,1,.32,2.73,11,11,0,0,1-.32,2.76C51.9,40.16,49,41,46.17,41s-5.76-.9-6.22-2.69a9.32,9.32,0,0,1-.32-2.69Zm2.87,9.7a12.23,12.23,0,0,0,.17,2.19c.27,1.45,1.86,2.16,3.5,2.16s3.21-.71,3.48-2.14a14.48,14.48,0,0,0,0-4.45c-.24-1.38-1.86-2.12-3.48-2.12a8.26,8.26,0,0,0-3.67.76Z" fill="#2c77f4"/><path d="M67.4,38.26c-.91,3.64-11.54,3.52-12.44.1a12.24,12.24,0,0,1,0-5.49c.91-3.5,11.54-3.5,12.44,0A12,12,0,0,1,67.4,38.26Zm-9.72-4.87a15.19,15.19,0,0,0,0,4.47c.51,2.76,6.49,2.85,7-.1a13.65,13.65,0,0,0,0-4.35C64.14,30.53,58.19,30.55,57.68,33.38Z" fill="#2c77f4"/><path d="M82.56,38.26c-.91,3.64-11.54,3.52-12.44.1a12.24,12.24,0,0,1,0-5.49c.91-3.5,11.54-3.5,12.44,0A12,12,0,0,1,82.56,38.26Zm-9.72-4.87a15.17,15.17,0,0,0,0,4.47c.51,2.76,6.49,2.85,7-.1a13.63,13.63,0,0,0,0-4.35C79.31,30.53,73.35,30.55,72.84,33.38Z" fill="#2c77f4"/><path d="M88.07,26.32V36.54l4.36,4.23H96.5l-5.66-5.49,4.65-4.54H94.05l-6,5.8v4.23H85.21V26Z" fill="#2c77f4"/></svg>