<svg id="Layer_1" data-name="Layer 1" xmlns="http://www.w3.org/2000/svg" viewBox="0 0 100 18"><defs><style>.cls-1{fill:#4459b8;}</style></defs><title>Airbook_Admin_Console_logo</title><path class="cls-1" d="M15,17.36,11.71,17a13.49,13.49,0,0,1-4.19.6c-3.32,0-6.62-1-7.15-3A12.23,12.23,0,0,1,0,11.43,12.74,12.74,0,0,1,.37,8.26c.51-2,3.8-3,7.12-3s6.64,1,7.18,3.06A11.49,11.49,0,0,1,15,11.19Zm-3.29-6a13.73,13.73,0,0,0-.2-2.49c-.31-1.64-2.14-2.46-4-2.46s-3.72.82-4,2.43a14.69,14.69,0,0,0-.2,2.57A14.69,14.69,0,0,0,3.49,14c.28,1.59,2.17,2.41,4,2.41a9.09,9.09,0,0,0,4.19-.87Z"/><path class="cls-1" d="M21.17,3c-.25,1.12-3.52,1.09-3.8.05a4.29,4.29,0,0,1,0-1.69c.28-1.07,3.52-1.07,3.8,0A3.13,3.13,0,0,1,21.17,3ZM17.62,17.36V5.58L20.92,6V17.36Z"/><path class="cls-1" d="M26.89,17.36H23.59V5.58l3,.38A13.06,13.06,0,0,1,31,5.26c.42,0,.84,0,1.27.05V6.46c-.39,0-.79-.05-1.18-.05-1.86,0-3.74.82-4,2.46a16.88,16.88,0,0,0-.2,2.49v6Z"/><path class="cls-1" d="M34.63.34l3.29.41V5.94a13.8,13.8,0,0,1,4.22-.6c3.29,0,6.62,1,7.12,3a12.38,12.38,0,0,1,.37,3.14,12.6,12.6,0,0,1-.37,3.17c-.54,2-3.83,3-7.12,3s-6.62-1-7.15-3.09a10.72,10.72,0,0,1-.37-3.09Zm3.29,11.15a14.06,14.06,0,0,0,.2,2.51c.31,1.67,2.14,2.49,4,2.49s3.69-.82,4-2.46a14.67,14.67,0,0,0,.2-2.57,14.56,14.56,0,0,0-.2-2.54c-.28-1.59-2.14-2.43-4-2.43a9.5,9.5,0,0,0-4.22.87Z"/><path class="cls-1" d="M66.55,14.47c-1,4.18-13.26,4-14.3.11a14.07,14.07,0,0,1,0-6.31c1-4,13.26-4,14.3.05A13.75,13.75,0,0,1,66.55,14.47ZM55.38,8.86a17.46,17.46,0,0,0,0,5.14c.59,3.17,7.46,3.28,8.05-.11a15.69,15.69,0,0,0,0-5C62.81,5.58,56,5.61,55.38,8.86Z"/><path class="cls-1" d="M84,14.47c-1,4.18-13.26,4-14.3.11a14.07,14.07,0,0,1,0-6.31c1-4,13.26-4,14.3.05A13.75,13.75,0,0,1,84,14.47ZM72.8,8.86a17.44,17.44,0,0,0,0,5.14c.59,3.17,7.46,3.28,8.05-.11a15.67,15.67,0,0,0,0-5C80.24,5.58,73.39,5.61,72.8,8.86Z"/><path class="cls-1" d="M90.31.75V12.5l5,4.87H100l-6.5-6.31,5.35-5.22H97.18L90.31,12.5v4.87H87V.34Z"/></svg>